<svg width="78" height="200" viewBox="0 0 78 200" fill="none" xmlns="http://www.w3.org/2000/svg">
<path d="M38.8168 99.8482C38.8259 100.75 38.8259 101.712 38.8168 102.714V99.8482Z" fill="#FDCE8C"/>
<path d="M40.1855 128.6C39.2287 118.986 38.7617 109.783 38.7021 102.792V99.871C38.7021 99.8527 38.7021 99.8344 38.7021 99.8161C38.7388 96.0069 39.1829 87.8665 47.8544 85.2843C61.4659 81.2324 65.82 89.5605 65.8154 90.5403C65.7696 112.539 57.6475 121.422 57.1119 126.87C56.6723 131.38 56.1641 134.58 56.5212 138.078C56.8738 141.576 57.3591 149.982 56.6723 155.906C55.7109 164.156 51.6681 178.235 50.0245 185.299C49.6582 186.874 48.8112 189.008 48.9852 190.432C49.3011 193 50.8761 194.868 51.1599 196.379C51.5949 198.686 46.0047 199.675 44.4801 199.785C43.5552 199.854 41.4538 200.385 40.3824 199.465V195.335C40.7487 194.19 41.1516 192.808 41.2798 191.329C41.5407 188.33 41.9803 185.437 42.0581 183.953C42.406 177.621 40.0619 164.458 39.6865 155.009C39.3935 147.665 40.7212 143.366 40.9638 139.488C41.1653 136.297 40.7212 133.998 40.1855 128.6Z" fill="#FDCE8C"/>
<path d="M75.8375 71.0226C76.3366 72.4419 71.9138 71.6452 70.522 72.4098C69.8856 72.7578 67.4591 73.7879 65.8841 70.7158C59.4652 58.1939 56.6449 46.8807 55.047 44.9532C53.472 43.0532 53.4125 41.2447 53.179 40.1825C52.9181 36.4969 54.3282 34.7937 57.3179 34.6793C60.4999 34.5557 67.6056 36.8128 71.3186 46.9036C73.7315 53.4461 73.6765 64.8692 75.8375 71.0226Z" fill="#FDCE8C"/>
<path d="M76.7851 95.201C76.5791 93.5574 72.7424 94.061 71.932 93.9923C70.737 93.8916 70.3754 94.3036 69.8031 95.9839C69.5284 97.8336 68.1731 97.8107 68.0083 103.108C67.9625 104.532 67.8893 105.914 67.9168 107.155C67.9168 107.279 68.8691 107.453 69.0842 106.075C69.6108 102.746 70.0136 103.145 70.4394 101.95C70.5218 103.369 71.0987 104.642 70.2426 108.181C69.6977 110.42 68.7683 111.779 69.6107 112.512C70.4532 113.24 74.0426 109.705 75.027 103.831C75.4024 101.602 76.8675 98.3189 76.7851 95.201Z" fill="#FDCE8C"/>
<path d="M71.8176 97.3483C72.6783 97.3758 76.6158 96.6524 76.7897 95.1003C76.8996 94.1297 76.7028 92.976 76.8676 91.7856C78.8775 77.1027 76.5791 71.9886 74.029 67.25C73.3239 65.936 69.9588 63.9123 68.1549 64.6311C65.4994 65.6887 65.6093 68.0008 65.6459 69.53C65.8337 78.0825 69.1255 84.0847 70.3937 94.6242C70.499 95.517 70.9614 97.3209 71.8176 97.3483Z" fill="#FDCE8C"/>
<path d="M37.4478 128.6C38.4047 118.986 38.8717 109.783 38.9313 102.792V99.871C38.9313 99.8527 38.9313 99.8344 38.9313 99.8161C38.8946 96.0069 38.4505 87.8665 29.779 85.2843C16.1675 81.2324 11.8134 89.5605 11.818 90.5403C11.8638 112.539 19.9859 121.422 20.5215 126.87C20.9611 131.38 21.4692 134.58 21.1121 138.078C20.7596 141.576 20.2743 149.982 20.9611 155.906C21.9225 164.156 25.9652 178.235 27.6089 185.299C27.9751 186.874 28.8222 189.008 28.6482 190.432C28.3323 193 26.7573 194.868 26.4734 196.379C26.0385 198.686 31.6287 199.675 33.1533 199.785C34.0781 199.854 36.1796 200.385 37.251 199.465V195.335C36.8847 194.19 36.4818 192.808 36.3536 191.329C36.0926 188.33 35.6531 185.437 35.5753 183.953C35.2273 177.621 37.5715 164.458 37.9469 155.009C38.2399 147.665 36.9122 143.366 36.6695 139.488C36.4681 136.297 36.9122 133.998 37.4478 128.6Z" fill="#FDCE8C"/>
<path d="M1.79589 71.0226C1.29685 72.4419 5.71957 71.6453 7.1114 72.4099C7.7478 72.7578 10.1743 73.788 11.7493 70.7159C18.1682 58.194 20.9885 46.8808 22.5864 44.9533C24.1613 43.0532 24.2208 41.2448 24.4543 40.1826C24.7153 36.497 23.3052 34.7938 20.3155 34.6793C17.1335 34.5557 10.0278 36.8129 6.31476 46.9037C3.90195 53.4462 3.95689 64.8693 1.79589 71.0226Z" fill="#FDCE8C"/>
<path d="M0.848182 95.2011C1.05421 93.5575 4.89091 94.0611 5.70128 93.9924C6.89624 93.8917 7.25793 94.3038 7.83023 95.984C8.10494 97.8337 9.46013 97.8108 9.62495 103.108C9.67074 104.532 9.744 105.915 9.71653 107.155C9.71653 107.279 8.76423 107.453 8.54904 106.075C8.02253 102.746 7.61962 103.145 7.19383 101.95C7.11142 103.369 6.53455 104.642 7.39071 108.181C7.93554 110.42 8.86494 111.779 8.02252 112.512C7.18009 113.24 3.59064 109.705 2.60628 103.831C2.23543 101.602 0.765771 98.319 0.848182 95.2011Z" fill="#FDCE8C"/>
<path d="M5.81573 97.3484C4.95499 97.3759 1.01756 96.6525 0.843583 95.1005C0.733702 94.1298 0.930581 92.9761 0.765758 91.7857C-1.24416 77.1028 1.05419 71.9887 3.60435 67.2501C4.30943 65.9361 7.67455 63.9124 9.47844 64.6312C12.1339 65.6889 12.024 68.001 11.9874 69.5301C11.7997 78.0826 8.50781 84.0848 7.2396 94.6243C7.13887 95.5171 6.67189 97.321 5.81573 97.3484Z" fill="#FDCE8C"/>
<path d="M52.4882 22.1665C52.3737 18.1284 52.2867 15.0151 51.513 11.7323C48.9674 0.954811 44.0227 -0.0020728 38.8171 0.00250559C33.6115 -0.0066512 28.6668 0.950233 26.1258 11.7323C25.352 15.0151 25.265 18.1238 25.1506 22.1665C25.0316 26.3283 24.7019 30.5267 25.1506 33.3469C28.2227 32.6373 49.4207 32.6373 52.4928 33.3469C52.9369 30.5312 52.6072 26.3283 52.4882 22.1665Z" fill="#1B1616"/>
<path d="M63.5907 79.8268C62.8124 77.5926 63.0734 75.633 62.1714 71.7643C61.4068 68.4861 58.7376 65.2309 59.0581 59.8971C59.0764 59.6178 59.2458 59.3797 59.4427 59.1783C59.5618 59.0546 59.7769 58.6655 60.1478 57.7681C61.4068 54.7143 60.2622 48.8952 57.2496 43.6758C57.2588 39.6514 58.3118 34.9357 58.3118 34.9357C56.3523 33.7087 46.9895 32.7106 45.6617 27.4729C45.1535 25.4767 43.9448 19.0853 43.9448 19.0853L38.8262 19.2821L33.7076 19.0853C33.7076 19.0853 32.4943 25.4767 31.9907 27.4729C30.6629 32.7106 21.2955 33.7087 19.3406 34.9357C19.3406 34.9357 20.3936 39.6514 20.4027 43.6758C17.3902 48.8952 16.2456 54.7143 17.5046 57.7681C17.8755 58.6609 18.0861 59.0546 18.2097 59.1783C18.4066 59.3797 18.576 59.6132 18.5943 59.8971C18.9148 65.2309 16.2456 68.4861 15.481 71.7643C14.5745 75.633 14.84 77.5926 14.0617 79.8268C13.233 82.203 11.3604 87.4041 12.0197 92.5959C12.299 94.789 15.188 99.8481 15.188 99.8481C17.1704 107.242 15.4672 102.243 38.8354 104.184C62.2035 102.243 60.5003 107.242 62.4827 99.8481C62.4827 99.8481 65.3717 94.7844 65.651 92.5959C66.2874 87.4086 64.4149 82.203 63.5907 79.8268Z" fill="#FDCE8C"/>
<path d="M38.817 99.8481C38.8079 100.75 38.8079 101.711 38.817 102.714V99.8481Z" fill="#FDCE8C"/>
<path opacity="0.1" d="M45.6112 24.4101C43.9126 25.6554 39.6776 27.6653 38.9314 27.6928V27.7523V27.6928C38.1851 27.6608 33.9546 25.6554 32.2515 24.4101C32.1004 25.1335 31.8623 26.2369 31.7433 26.7451C32.7231 28.1094 35.3373 30.8061 38.9268 31.1999C42.5208 30.8061 45.1351 28.1049 46.1103 26.7451C45.9958 26.2369 45.7623 25.1335 45.6112 24.4101Z" fill="#231300"/>
<path d="M47.4747 14.8367C47.4747 10.2995 45.0115 5.40974 38.817 5.33649C32.6178 5.40974 30.1592 10.2995 30.1592 14.8367C30.1592 18.2292 29.3992 20.2666 30.8506 22.7298C32.0272 24.7306 32.8513 25.9393 33.9547 26.7451C35.5251 27.8897 38.0615 28.3521 38.8215 28.3979C39.5815 28.3521 42.1134 27.8897 43.6884 26.7451C44.7918 25.9393 45.6159 24.7306 46.7925 22.7298C48.2347 20.2666 47.4747 18.2292 47.4747 14.8367Z" fill="#FDCE8C"/>
<path d="M50.3865 10.185C49.9332 6.58641 48.7246 3.8348 46.3392 2.12248C44.5765 0.694021 42.1591 -0.0843065 38.8261 0.00726141C38.8215 0.00726141 38.8215 0.00726141 38.8169 0.00726141C35.4838 -0.0843065 33.071 0.694021 31.3083 2.12248C28.923 3.83938 27.783 7.28233 27.261 10.185C26.8673 12.3689 26.6613 14.7909 26.5331 17.3411C27.8654 17.2907 28.0073 17.2541 29.3351 17.1533C29.2664 16.6131 29.944 15.8989 29.944 15.2121C29.944 12.0942 31.7204 9.05417 33.6113 7.24112C34.0004 6.87027 36.2393 7.27317 38.8169 8.17054C42.7314 9.53032 47.4334 12.0118 47.6349 14.6261C48.7886 14.2827 49.6265 14.0171 50.7711 13.6417C50.6521 12.4422 50.5238 11.2838 50.3865 10.185Z" fill="#1B1616"/>
<path d="M30.4339 15.5829C30.4339 15.5829 29.4861 14.4796 29.1473 15.3861C28.5247 17.0618 30.7361 18.9252 30.8322 19.2548C30.9329 19.5936 30.4339 15.5829 30.4339 15.5829Z" fill="#FDCE8C"/>
<path d="M47.2 15.5829C47.2 15.5829 48.1477 14.4796 48.4865 15.3861C49.1092 17.0618 46.8978 18.9252 46.8016 19.2548C46.7009 19.5936 47.2 15.5829 47.2 15.5829Z" fill="#FDCE8C"/>
<path d="M63.5906 79.8269C63.4853 79.5889 63.4075 79.305 63.3434 78.9983C62.9222 77.318 62.9451 75.6331 62.4277 72.9777C62.2492 72.2222 62.0157 71.4256 61.7089 70.5786C61.4937 69.988 61.3014 69.4111 61.132 68.8525C60.0973 66.4123 58.8245 63.6789 59.0534 59.8972C59.0718 59.6179 59.2412 59.3798 59.438 59.1784C59.5571 59.0548 59.7723 58.6656 60.1431 57.7682C61.4022 54.7145 60.2576 48.8953 57.245 43.676C57.2542 39.6515 58.3072 34.9358 58.3072 34.9358C58.2476 34.8992 58.1835 34.8625 58.1103 34.8259C58.0874 34.8122 58.0599 34.803 58.0371 34.7893C57.9867 34.7664 57.9363 34.7389 57.8768 34.716C57.8447 34.7023 57.8127 34.6886 57.7807 34.6748C57.7257 34.6519 57.6708 34.629 57.6113 34.6062C57.5746 34.5924 57.538 34.5787 57.5014 34.5649C57.4373 34.5421 57.3732 34.5192 57.3045 34.4917C57.2679 34.478 57.2312 34.4642 57.1946 34.4551C57.1168 34.4276 57.039 34.4001 56.9566 34.3727C56.9245 34.3635 56.897 34.3543 56.865 34.3452C56.7597 34.3086 56.6498 34.2765 56.5353 34.2399C56.5307 34.2399 56.5262 34.2353 56.517 34.2353C55.5601 33.9377 54.3697 33.6126 53.129 33.2006C53.1198 33.196 53.1107 33.196 53.1015 33.1914C52.955 33.1411 52.8131 33.0953 52.6666 33.0449C51.9615 43.6393 43.6838 48.0849 38.8994 48.0849H38.7391C33.9547 48.0849 25.677 43.6393 24.9719 33.0449C24.8254 33.0953 24.6789 33.1456 24.537 33.1914C24.5278 33.196 24.5186 33.196 24.5095 33.2006C23.2687 33.6126 22.0783 33.9423 21.1215 34.2353C21.1169 34.2353 21.1123 34.2399 21.1032 34.2399C20.9887 34.2765 20.8788 34.3086 20.7735 34.3452C20.7415 34.3543 20.714 34.3635 20.6819 34.3727C20.5995 34.4001 20.5217 34.4276 20.4439 34.4551C20.4072 34.4688 20.3706 34.4825 20.334 34.4917C20.2653 34.5146 20.2012 34.5375 20.1371 34.5649C20.1005 34.5787 20.0638 34.5924 20.0272 34.6062C19.9677 34.629 19.9128 34.6519 19.8578 34.6748C19.8258 34.6886 19.7937 34.7023 19.7617 34.716C19.7067 34.7389 19.6518 34.7664 19.6014 34.7893C19.5785 34.803 19.5511 34.8122 19.5282 34.8259C19.4595 34.8625 19.3908 34.8992 19.3313 34.9358C19.3313 34.9358 20.3843 39.6515 20.3935 43.676C17.3809 48.8953 16.2363 54.7145 17.4954 57.7682C17.8662 58.661 18.0768 59.0548 18.2004 59.1784C18.3973 59.3798 18.5667 59.6133 18.585 59.8972C18.8094 63.6789 17.5366 66.4123 16.5064 68.8525C16.337 69.4111 16.1448 69.988 15.9296 70.5786C15.6228 71.4256 15.3939 72.2222 15.2108 72.9777C14.698 75.6331 14.7209 77.3134 14.2951 78.9983C14.231 79.3096 14.1531 79.5889 14.0478 79.8269C13.3611 81.7957 11.9601 85.7193 11.8777 89.9589C14.6247 90.3298 18.9101 91.8727 22.7376 93.9696C27.3938 96.5198 36.015 102.211 38.8215 102.211C41.6281 102.211 50.2446 96.5198 54.9054 93.9696C58.733 91.8727 63.0183 90.3298 65.7654 89.9589C65.6784 85.7193 64.2774 81.8002 63.5906 79.8269Z" fill="#4594F3"/>
<path d="M61.709 70.5832C61.7044 70.5741 61.7044 70.5649 61.6998 70.5558C61.4709 69.9331 61.2649 69.3242 61.0817 68.7336C60.0562 66.3253 58.8292 63.6195 59.0535 59.9018C59.0718 59.6226 59.2412 59.3845 59.4381 59.183C59.5022 59.1189 59.5892 58.9816 59.7082 58.7389C59.7723 58.0888 59.873 57.6493 59.9829 57.4478C60.0608 57.3013 60.134 57.1548 60.1981 57.0083C60.2301 56.8435 60.2576 56.6695 60.2897 56.5047C60.2897 56.5047 60.3629 56.4406 60.482 56.3307C60.5094 56.262 60.5278 56.1933 60.5552 56.1247C60.8757 53.7439 60.3034 50.507 58.9665 47.2105C58.6094 46.6153 58.2615 46.0659 57.9593 45.576C59.5342 49.0236 61.6128 54.2658 55.8624 55.6622C48.7933 57.3746 44.5492 55.0716 38.8994 54.9755H38.7392C33.0894 55.0716 28.8453 57.3746 21.7762 55.6622C16.0258 54.2704 18.1043 49.0236 19.6793 45.576C19.3817 46.0659 19.0292 46.6153 18.6721 47.2105C17.3352 50.507 16.7629 53.7393 17.0834 56.1247C17.1063 56.1933 17.1291 56.262 17.1566 56.3307C17.2757 56.4406 17.3489 56.5047 17.3489 56.5047C17.381 56.6695 17.4085 56.8435 17.4405 57.0083C17.5092 57.1548 17.5778 57.3013 17.6557 57.4478C17.761 57.6493 17.8663 58.0888 17.9304 58.7389C18.0494 58.977 18.141 59.1189 18.2005 59.183C18.3974 59.3845 18.5668 59.618 18.5851 59.9018C18.8094 63.6195 17.5824 66.3253 16.5568 68.7336C16.3737 69.3242 16.1677 69.9331 15.9388 70.5558C15.9342 70.5649 15.9342 70.5741 15.9296 70.5832C15.7969 70.9495 15.6778 71.3112 15.5725 71.6592C19.6793 67.5203 18.141 60.8541 22.1242 60.8541C27.371 60.8541 30.6675 57.8965 38.7392 57.402H38.8994C46.9666 57.8965 50.2676 60.8541 55.5144 60.8541C59.5022 60.8541 57.9638 67.5203 62.0661 71.6592C61.9608 71.3066 61.8418 70.9495 61.709 70.5832Z" fill="#2D87F3"/>
</svg>
