<svg width="66" height="200" viewBox="0 0 66 200" fill="none" xmlns="http://www.w3.org/2000/svg">
<path d="M51.96 45.2949C56.999 34.4314 55.9701 34.5646 55.9701 34.5646C54.2935 33.3795 53.214 32.8283 49.0019 31.9005C45.7911 31.1931 43.0993 32.199 40.0355 29.0525C38.3727 27.3392 38.1247 24.822 38.0052 21.9098C37.9042 19.4569 34.7623 19.8841 33.3475 19.7463V19.7141H32.9249H32.9065H32.8882H32.4656V19.7463C31.0508 19.8841 27.9135 19.4569 27.8078 21.9098C27.6884 24.822 27.4404 27.3392 25.7776 29.0525C22.7137 32.199 20.0266 31.1931 16.8112 31.9005C12.599 32.8237 11.5196 33.3795 9.84298 34.5646C9.84298 34.5646 8.81406 34.4268 13.853 45.2949C14.1378 45.9104 15.2678 52.8648 17.2522 59.7963C19.1538 66.443 18.6853 73.8338 18.7772 77.7612C18.8553 81.1465 18.3087 81.1924 17.7345 83.039C16.5448 86.8653 14.7442 88.9461 14.3491 95.5055C14.2664 96.879 18.0331 93.1124 22.3692 94.9497C25.4652 96.2589 28.2947 103.893 32.461 104.403C32.4656 104.403 32.4702 104.403 32.4748 104.403C32.6172 104.421 32.7596 104.431 32.9019 104.431C33.0443 104.431 33.1913 104.421 33.3291 104.403C33.3337 104.403 33.3383 104.403 33.3429 104.403C37.5091 103.893 40.3387 96.2634 43.4347 94.9497C47.7708 93.1124 51.5374 96.879 51.4548 95.5055C51.0597 88.9415 49.2591 86.8653 48.0694 83.039C47.4952 81.1878 46.944 81.1465 47.0267 77.7612C47.1186 73.8338 46.65 66.4384 48.5517 59.7963C50.5453 52.8648 51.6753 45.9104 51.96 45.2949Z" fill="#FDCE8C"/>
<path d="M51.4637 95.5099C51.4683 95.4778 50.8252 89.9289 49.3967 86.516C48.648 85.7811 47.4629 82.1201 42.3871 83.2869C35.4051 84.89 35.35 91.261 34.8401 95.0001C34.5875 96.8512 34.4221 100.131 34.3992 104.123C34.3578 111.445 34.7896 121.146 36.0161 128.757C36.2871 130.443 35.9839 132.124 35.9196 133.695C35.6991 139.056 36.9439 141.311 36.7372 144.467C36.4846 148.302 35.0974 151.674 35.4051 158.94C35.7956 168.293 38.4184 179.073 38.0555 185.339C37.9728 186.804 37.7799 188.38 37.5043 191.347C37.2379 194.227 36.1171 196.951 36.1447 197.98C36.2228 200.934 39.5346 199.804 40.8437 199.712C42.4331 199.601 48.3172 198.889 47.8625 196.607C47.5639 195.114 45.5658 193.676 45.235 191.14C45.0513 189.73 43.6365 186.708 43.6457 185.941C43.7835 172.114 46.8887 164.852 47.1643 156.846C47.3618 151.104 47.0449 147.801 46.6728 144.338C46.3007 140.875 47.8533 134.232 48.5607 129.804C50.7655 115.964 52.5937 108.225 51.4637 95.5099Z" fill="#FDCE8C"/>
<path d="M31.4181 104.118C31.3952 100.131 31.2298 96.8467 30.9772 94.9956C30.4627 91.2565 30.4122 84.8855 23.4302 83.2824C18.3544 82.1156 17.1693 85.7812 16.4206 86.5115C14.9921 89.9199 14.349 95.4733 14.3536 95.5055C13.2236 108.22 15.0472 115.96 17.2566 129.795C17.964 134.223 19.5166 140.865 19.1445 144.329C18.777 147.792 18.4555 151.095 18.653 156.837C18.9286 164.843 22.0338 172.105 22.1716 185.932C22.1808 186.699 20.766 189.721 20.5823 191.131C20.2515 193.671 18.2534 195.109 17.9548 196.597C17.5001 198.88 23.3796 199.588 24.9736 199.703C26.2827 199.794 29.5945 200.924 29.6726 197.971C29.7002 196.942 28.5794 194.223 28.313 191.338C28.0374 188.371 27.8444 186.795 27.7618 185.33C27.3989 179.064 30.0217 168.284 30.4122 158.931C30.7153 151.665 29.3327 148.293 29.0801 144.458C28.8734 141.302 30.1182 139.046 29.8977 133.686C29.8334 132.115 29.5302 130.434 29.8012 128.748C31.0277 121.141 31.4595 111.44 31.4181 104.118Z" fill="#FDCE8C"/>
<path d="M60.9677 80.1819C60.2236 80.3243 57.0358 78.7947 57.0128 73.6041C57.0036 71.0134 52.7501 62.07 50.6509 48.3357C50.2972 46.0298 48.0419 42.9063 47.8995 42.153C46.9073 36.9716 48.9192 32.9753 49.0019 31.9005C56.8061 32.6859 58.9972 36.7695 59.2911 43.3059C59.4841 47.564 61.4409 51.1882 62.5984 56.2502C63.6319 60.7885 64.3531 68.634 64.3163 73.6684C64.3026 74.9546 64.3209 79.5388 60.9677 80.1819Z" fill="#FDCE8C"/>
<path d="M64.8079 97.3934C64.8217 95.6662 63.5539 94.6924 62.502 94.6924C61.4088 94.6924 61.3399 95.7995 60.3339 97.3934C59.6725 99.2216 57.734 99.6396 56.6316 105.028C56.333 106.475 56.0069 107.876 55.8324 109.153C55.814 109.277 56.9945 109.672 57.4998 108.307C58.7262 105.018 59.1764 105.519 59.9159 104.389C59.7827 105.864 60.3064 107.297 58.616 110.728C57.5503 112.896 56.1401 114.081 57.0864 115.018C58.0326 115.955 62.5985 113.222 64.9825 107.053C65.9654 104.509 65.4096 99.9657 64.8079 97.3934Z" fill="#FDCE8C"/>
<path d="M60.3339 97.3934C60.7106 99.4329 61.5145 99.0057 62.4102 99.0333C63.3059 99.0562 64.6288 98.9322 64.8079 97.3934C64.9182 96.4334 65.1295 94.8487 65.2397 93.6682C66.5488 79.8879 65.5199 73.3698 63.3013 69.199C62.6031 67.8899 61.5374 66.5716 59.6541 67.2882C56.8843 68.3401 56.9716 72.0975 57.0083 73.6087C57.2242 82.0698 59.0662 89.4973 59.9527 94.9635C60.0997 95.8409 60.3339 97.3934 60.3339 97.3934Z" fill="#FDCE8C"/>
<path d="M4.85446 80.1818C5.5986 80.3242 8.78643 78.7946 8.8094 73.604C8.81858 71.0134 13.0721 62.07 15.1713 48.3356C15.525 46.0297 17.7803 42.9062 17.9227 42.1529C18.9149 36.9715 16.903 32.9753 16.8203 31.9004C9.0161 32.6859 6.82504 36.7694 6.53106 43.3059C6.33814 47.564 4.37675 51.1882 3.2238 56.2501C2.19028 60.7884 1.46911 68.634 1.50586 73.6684C1.51505 74.9545 1.49667 79.5387 4.85446 80.1818Z" fill="#FDCE8C"/>
<path d="M1.00975 97.3934C0.995974 95.6662 2.26376 94.6924 3.31106 94.6924C4.40429 94.6924 4.47319 95.7995 5.48374 97.3934C6.1452 99.2216 8.08362 99.6396 9.18604 105.028C9.48002 106.475 9.81075 107.876 9.9807 109.153C9.99908 109.277 8.81857 109.672 8.31329 108.307C7.08685 105.018 6.63669 105.519 5.89715 104.389C6.03036 105.864 5.50671 107.297 7.19709 110.728C8.26276 112.896 9.67294 114.081 8.7267 115.018C7.78045 115.955 3.2146 113.222 0.830611 107.053C-0.147787 104.509 0.408017 99.9657 1.00975 97.3934Z" fill="#FDCE8C"/>
<path d="M5.48375 97.3934C5.10709 99.4329 4.30324 99.0057 3.40753 99.0333C2.51181 99.0562 1.1889 98.9322 1.00976 97.3934C0.899518 96.4334 0.688221 94.8487 0.577979 93.6682C-0.731145 79.8879 0.29778 73.3698 2.5164 69.199C3.2146 67.8899 4.28027 66.5716 6.16358 67.2882C8.93341 68.3401 8.84613 72.0975 8.80939 73.6087C8.59349 82.0698 6.75153 89.4973 5.865 94.9635C5.72261 95.8409 5.48375 97.3934 5.48375 97.3934Z" fill="#FDCE8C"/>
<path d="M43.2371 8.10668C43.1131 7.36714 43.3106 6.71487 43.0764 5.9937C42.8972 5.45168 42.3598 5.0199 42.0796 4.55596C41.7305 3.9726 41.6156 3.49948 41.2252 2.93908C40.7888 2.32356 40.2284 2.21791 39.6405 1.85963C38.8183 1.35894 38.4829 0.839889 37.5688 0.623998C36.0025 0.256524 34.5693 -0.0374545 32.9157 0.00388626C31.2621 -0.0374545 29.8335 0.256524 28.2672 0.623998C27.3531 0.835295 27.0132 1.35435 26.1955 1.85963C25.6076 2.21791 25.0426 2.32356 24.6108 2.93908C24.2158 3.49948 24.1055 3.9726 23.7564 4.55596C23.4762 5.0199 22.9342 5.44709 22.7597 5.9937C22.5254 6.71028 22.7229 7.36714 22.5989 8.10668C22.4795 8.80028 22.6035 9.4893 22.6678 10.2105C22.7321 10.9224 23.1134 11.5334 22.9985 12.3097C22.8883 13.0768 23.0766 13.8852 23.4257 14.611C23.8988 15.5848 23.513 16.0303 23.8391 17.0592C24.2204 18.2673 24.7532 19.4478 25.5295 20.463C26.3977 21.6021 27.151 22.5392 28.5657 22.9021L32.9203 23.118L37.2749 22.9021C38.6896 22.5392 39.443 21.6021 40.3111 20.463C41.0874 19.4478 41.6202 18.2673 42.0015 17.0592C42.3276 16.0303 41.9418 15.5894 42.4149 14.611C42.7686 13.8852 42.9523 13.0768 42.8421 12.3097C42.7318 11.5334 43.1085 10.9224 43.1728 10.2105C43.2325 9.4893 43.352 8.80028 43.2371 8.10668Z" fill="#1B1616"/>
<path opacity="0.1" d="M38.0052 21.9145C37.9915 21.616 37.9317 21.3587 37.8399 21.1382C37.3759 21.4368 36.8477 21.7767 36.2276 22.2039C35.3962 22.7827 33.7517 23.3063 33.0306 23.3569V23.3431C32.9892 23.3523 32.9571 23.3569 32.9203 23.3615C32.9157 23.3615 32.9111 23.3615 32.9065 23.3615C32.9019 23.3615 32.8974 23.3615 32.8928 23.3615C32.856 23.3569 32.8239 23.3523 32.7825 23.3431V23.3569C32.0614 23.3063 30.4169 22.7781 29.5855 22.2039C28.97 21.7767 28.4371 21.4368 27.9732 21.1382C27.8767 21.3587 27.8216 21.616 27.8078 21.9145C27.7619 23.017 27.6976 24.0643 27.546 25.0335C28.7357 27.1235 30.6512 29.2227 32.9065 29.2227C35.1573 29.2227 37.0774 27.1235 38.2671 25.0335C38.1155 24.0643 38.0512 23.017 38.0052 21.9145Z" fill="#231300"/>
<path d="M40.4169 9.25969C40.1137 8.11593 39.8932 7.65659 39.388 7.39017C38.4187 6.87571 36.5814 7.61984 32.9112 7.53257C29.2411 7.61984 27.4037 6.87571 26.4345 7.39017C25.9292 7.65659 25.7088 8.12052 25.4056 9.25969C25.1116 10.3575 24.6569 12.939 24.813 13.7796C25.4056 16.972 25.0795 20.4584 26.2875 22.4015C26.8755 23.3477 29.4432 26.1221 29.9209 26.5218C30.6696 27.1465 31.6067 27.5553 32.8607 27.5553C32.8791 27.5553 32.8975 27.5599 32.9112 27.5599C32.925 27.5599 32.9434 27.5553 32.9618 27.5553C34.2158 27.5553 35.1528 27.1465 35.9016 26.5218C36.3793 26.1221 38.947 23.3523 39.5349 22.4015C40.743 20.463 40.4169 16.9766 41.0094 13.7796C41.1656 12.939 40.7109 10.3621 40.4169 9.25969Z" fill="#FDCE8C"/>
<path d="M25.1712 14.6477C25.1712 14.6477 24.473 13.4397 24.225 14.4319C23.7656 16.2646 25.3963 18.2949 25.4698 18.6578C25.5387 19.0253 25.1712 14.6477 25.1712 14.6477Z" fill="#FDCE8C"/>
<path d="M40.6465 14.6477C40.6465 14.6477 41.3447 13.4397 41.5928 14.4319C42.0521 16.2646 40.4215 18.2949 40.348 18.6578C40.2791 19.0253 40.6465 14.6477 40.6465 14.6477Z" fill="#FDCE8C"/>
<path d="M50.3155 52.842C49.7735 51.193 49.3922 48.8962 49.2958 46.0116C49.158 41.9418 50.095 35.5524 50.4395 32.2359C50.366 32.2175 50.288 32.1992 50.2145 32.1808C50.1961 32.2543 50.1823 32.2956 50.1823 32.2956C50.1915 32.2543 50.2007 32.2175 50.2145 32.1808C49.8378 32.0935 49.4428 32.0017 49.0064 31.9052C47.7845 31.6388 46.7143 31.6296 45.6854 31.5561C44.1741 36.4205 40.5361 44.6519 33.1499 44.8311C33.1178 44.8311 33.0902 44.8357 33.058 44.8357C33.0351 44.8357 33.0167 44.8357 32.9937 44.8403C32.9662 44.8403 32.9386 44.8449 32.9111 44.8449C32.8835 44.8449 32.8559 44.8403 32.8284 44.8403C32.8054 44.8403 32.787 44.8403 32.7641 44.8357C32.7319 44.8357 32.7043 44.8311 32.6722 44.8311C25.2906 44.6519 21.648 36.4251 20.1368 31.5561C19.1078 31.6342 18.0376 31.6388 16.8157 31.9052C16.3793 32.0017 15.9797 32.0935 15.6076 32.1808C15.6168 32.2175 15.626 32.2543 15.6398 32.2956C15.6398 32.2956 15.626 32.2543 15.6076 32.1808C15.5342 32.1992 15.4515 32.2175 15.3826 32.2359C15.7271 35.557 16.6641 41.9464 16.5263 46.0116C16.4299 48.8962 16.0486 51.193 15.5066 52.842C15.9889 54.9871 16.5723 57.3895 17.2613 59.7964C19.163 66.4431 18.6944 73.8339 18.7863 77.7613C18.8644 81.1466 18.3178 81.1926 17.7436 83.0391C17.1143 85.0602 16.3196 86.5944 15.6444 88.5558H32.9111H50.1777C49.5071 86.5944 48.7078 85.0602 48.0785 83.0391C47.5043 81.188 46.9531 81.1466 47.0358 77.7613C47.1277 73.8339 46.6592 66.4385 48.5608 59.7964C49.2498 57.3941 49.8332 54.9871 50.3155 52.842Z" fill="#4594F3"/>
<path d="M51.4639 95.5103C51.1883 90.9352 50.2328 88.5421 49.2728 86.2132C46.751 86.7139 41.5375 87.4213 33.0213 87.4213C32.9846 87.4213 32.9478 87.4213 32.9111 87.4213C32.8743 87.4213 32.8376 87.4213 32.8008 87.4213C24.2846 87.4213 19.0711 86.7139 16.5493 86.2132C15.5893 88.5421 14.6339 90.9352 14.3582 95.5103C13.9862 99.6949 13.9357 103.342 14.1148 106.842C15.4515 107.315 17.7252 107.94 20.8442 108.124C28.3406 108.565 31.4136 106.856 31.4136 106.856V106.828C31.4182 106.365 31.4228 105.905 31.4228 105.45C31.4228 105 31.4228 104.555 31.4228 104.118C31.5468 104.169 31.6708 104.21 31.7995 104.247C32.0199 104.316 32.245 104.376 32.4747 104.403C32.4793 104.403 32.4839 104.403 32.4885 104.403C32.6309 104.422 32.7733 104.431 32.9157 104.431C33.0581 104.431 33.205 104.422 33.3428 104.403C33.3474 104.403 33.352 104.403 33.3566 104.403C33.5863 104.376 33.8114 104.316 34.0319 104.247C34.1559 104.206 34.2845 104.169 34.4085 104.118C34.4039 104.555 34.4039 105 34.4085 105.45C34.4085 105.901 34.4131 106.36 34.4177 106.828V106.856C34.4177 106.856 37.4953 108.565 44.9872 108.124C48.1061 107.94 50.3798 107.315 51.7165 106.842C51.8865 103.342 51.836 99.6949 51.4639 95.5103Z" fill="#666666"/>
</svg>
