<svg width="68" height="200" viewBox="0 0 68 200" fill="none" xmlns="http://www.w3.org/2000/svg">
<path d="M47.3872 22.1674C47.2728 18.1291 47.1858 15.0156 46.412 11.7328C43.8663 0.95027 38.9215 -0.00665155 33.7156 0.00250559C28.5098 -0.00665155 23.565 0.95027 21.0193 11.7328C20.2455 15.0156 20.1585 18.1245 20.044 22.1674C19.925 26.3293 19.5953 30.5278 20.044 33.3482C23.1162 32.6385 33.0426 34.763 33.7156 33.6367C34.3841 34.763 44.315 32.634 47.3872 33.3482C47.8359 30.5278 47.5063 26.3247 47.3872 22.1674Z" fill="#1B1616"/>
<path d="M53.5547 72.9849C50.5008 65.0502 51.7599 58.3792 52.1903 57.4452C54.5116 52.4088 52.5382 49.538 50.4229 45.5776L53.2021 34.9415C51.2425 33.7145 40.7622 32.9178 39.4344 27.6754C38.9262 25.6791 37.7174 19.2874 37.7174 19.2874H29.7095C29.7095 19.2874 28.4962 25.6791 27.9925 27.6754C26.6647 32.9132 16.1844 33.7145 14.2248 34.9415L17.004 45.5776C14.8887 49.538 12.9153 52.4088 15.2366 57.4452C15.667 58.3792 16.9261 65.0502 13.8722 72.9849C12.0454 77.7328 9.779 87.183 10.0583 96.0288C10.2964 103.68 10.3467 97.8557 33.7157 99.797C57.0848 97.8557 57.1305 103.68 57.3732 96.0288C57.6479 87.1876 55.3815 77.7328 53.5547 72.9849Z" fill="#FDCE8C"/>
<path opacity="0.1" d="M38.8299 24.9099C37.1312 26.1553 34.4619 27.6571 33.7156 27.6891V27.7486V27.6891C32.9693 27.6571 30.3046 26.1553 28.6014 24.9099C28.4503 25.6333 28.2122 26.7368 28.0931 27.245C29.073 28.6094 31.6827 30.8346 33.7111 31.1963C35.7394 30.8346 38.3491 28.6094 39.329 27.245C39.2145 26.7413 38.981 25.6379 38.8299 24.9099Z" fill="#231300"/>
<path d="M44.6079 197.064C45.0429 199.372 41.0183 199.669 39.4936 199.784C38.2391 199.875 34.8143 200.828 34.7365 197.842C34.709 196.803 36.0368 194.244 36.2932 191.332C36.5542 188.333 36.9937 185.439 37.0716 183.956C37.4195 177.623 35.0753 164.46 34.6999 155.01C34.4068 147.666 35.7346 143.367 35.9773 139.488C36.1787 136.302 35.7346 133.999 35.1944 128.601C34.0909 117.553 33.6422 107.049 33.7109 99.8152C33.7475 96.0058 34.1916 87.8651 42.8635 85.2828C56.471 81.2308 57.3226 93.5242 57.3272 97.1093C57.3455 111.669 51.0911 122.113 50.5554 127.561C50.1159 132.071 49.6077 135.272 49.9648 138.77C50.3174 142.268 50.8027 150.674 50.1159 156.599C49.1544 164.849 45.1115 178.928 43.4678 185.993C43.1015 187.568 42.2545 189.702 42.4285 191.126C42.749 193.685 44.324 195.558 44.6079 197.064Z" fill="#FDCE8C"/>
<path d="M64.3873 70.3018C64.6712 71.7761 61.3013 73.3145 59.8133 73.8685C59.1311 74.1203 56.5808 74.7842 55.4774 71.5151C50.9629 58.1869 49.8366 46.5802 48.5363 44.4375C47.2543 42.3267 47.4649 40.5274 47.3871 39.4422C47.6664 35.7565 49.3147 34.2822 52.2862 34.6027C55.4499 34.9461 60.5413 39.2591 62.7344 49.7898C64.1584 56.621 63.1511 63.9009 64.3873 70.3018Z" fill="#FDCE8C"/>
<path d="M67.0703 96.3767C66.8368 94.7375 63.0046 95.3098 62.1942 95.2503C60.9992 95.1679 60.642 95.5891 60.1018 97.2786C59.8591 99.133 58.5084 99.133 58.4352 104.435C58.4169 105.859 58.3619 107.242 58.4169 108.482C58.4214 108.606 59.3738 108.766 59.5661 107.384C60.0331 104.046 60.4452 104.44 60.8481 103.235C60.9534 104.655 61.5578 105.914 60.7611 109.471C60.2574 111.719 59.3509 113.098 60.2071 113.812C61.0587 114.526 64.5933 110.927 65.4724 105.039C65.7929 102.805 67.2031 99.4947 67.0703 96.3767Z" fill="#FDCE8C"/>
<path d="M62.1391 98.6111C62.9999 98.6202 66.9237 97.8327 67.0702 96.2806C67.1618 95.3054 67.0061 94.1653 67.0886 92.9657C68.2103 76.4966 66.4521 73.1771 63.8195 68.4841C63.0915 67.1838 59.6942 65.2196 57.8994 65.9705C55.2621 67.0739 55.4132 69.3861 55.4727 70.9107C55.8115 79.4543 59.2043 85.4019 60.6602 95.9189C60.7839 96.8071 61.2784 98.5973 62.1391 98.6111Z" fill="#FDCE8C"/>
<path d="M22.8232 197.064C22.3882 199.372 26.4128 199.669 27.9374 199.784C29.192 199.875 32.6167 200.828 32.6946 197.842C32.722 196.803 31.3943 194.244 31.1379 191.332C30.8769 188.333 30.4373 185.439 30.3595 183.956C30.0115 177.623 32.3558 164.46 32.7312 155.01C33.0242 147.666 31.6965 143.367 31.4538 139.488C31.2523 136.302 31.6964 133.999 32.2367 128.601C33.3402 117.553 33.7889 107.049 33.7202 99.8152C33.6835 96.0058 33.2394 87.8651 24.5676 85.2828C10.9555 81.2308 10.1085 93.5242 10.1039 97.1093C10.0856 111.669 16.3399 122.113 16.8756 127.561C17.3152 132.071 17.8234 135.272 17.4663 138.77C17.1137 142.268 16.6284 150.674 17.3152 156.599C18.2767 164.849 22.3195 178.928 23.9632 185.993C24.3295 187.568 25.1766 189.702 25.0026 191.126C24.6821 193.685 23.1071 195.558 22.8232 197.064Z" fill="#FDCE8C"/>
<path d="M3.04386 70.3018C2.75999 71.7761 6.12981 73.3145 7.61784 73.8685C8.30005 74.1203 10.8503 74.7842 11.9537 71.5151C16.4682 58.1869 17.5945 46.5802 18.8949 44.4375C20.1769 42.3267 19.9662 40.5274 20.0441 39.4422C19.7648 35.7565 18.1165 34.2822 15.145 34.6027C11.9812 34.9461 6.88986 39.2591 4.69673 49.7898C3.27279 56.621 4.28007 63.9009 3.04386 70.3018Z" fill="#FDCE8C"/>
<path d="M0.360842 96.3767C0.594349 94.7376 4.42661 95.3099 5.23701 95.2504C6.43202 95.168 6.78915 95.5892 7.32942 97.2787C7.57209 99.133 8.92276 99.133 8.99602 104.435C9.01433 105.859 9.06928 107.242 9.01433 108.482C9.00976 108.606 8.05741 108.766 7.86511 107.384C7.39809 104.046 6.98603 104.44 6.58312 103.235C6.47781 104.655 5.87344 105.914 6.67011 109.471C7.17375 111.719 8.0803 113.098 7.22411 113.812C6.3725 114.526 2.83785 110.927 1.96334 105.039C1.63826 102.805 0.228064 99.4947 0.360842 96.3767Z" fill="#FDCE8C"/>
<path d="M5.29189 98.6111C4.43112 98.6203 0.507294 97.8328 0.36078 96.2807C0.269208 95.3054 0.424876 94.1653 0.342462 92.9658C-0.774709 76.4967 0.978875 73.1772 3.61155 68.4842C4.33954 67.1838 7.73685 65.2196 9.53165 65.9705C12.1689 67.074 12.0178 69.3861 11.9537 70.9108C11.6149 79.4544 8.22218 85.402 6.76619 95.9189C6.64715 96.8072 6.15266 98.5974 5.29189 98.6111Z" fill="#FDCE8C"/>
<path d="M42.3738 14.8326C42.3738 10.2953 39.9105 5.40535 33.7157 5.33209C27.5163 5.40535 25.0577 10.2953 25.0577 14.8326C25.0577 18.2253 24.7097 20.2628 26.1611 22.7261C27.3378 24.7269 28.7205 25.2718 29.8239 26.0776C31.3944 27.2222 32.9557 27.6389 33.7157 27.6847C34.4758 27.6389 36.0371 27.2222 37.6075 26.0776C38.7109 25.2718 40.0937 24.7269 41.2704 22.7261C42.7218 20.2628 42.3738 18.2299 42.3738 14.8326Z" fill="#FDCE8C"/>
<path d="M42.534 14.6221C43.6877 14.2787 44.5256 14.0131 45.6703 13.6377C45.5512 12.4427 45.423 11.2843 45.2857 10.1854C44.8324 6.58666 43.6237 3.83494 41.2382 2.12256C39.4755 0.694047 37.058 -0.0843097 33.7248 0.00726168C30.387 -0.0843097 27.9741 0.694047 26.2114 2.12256C23.8259 3.83952 22.6859 7.28261 22.1639 10.1854C21.7701 12.3694 21.5641 14.7915 21.4359 17.3417C22.7683 17.2914 22.9102 17.2547 24.238 17.154C24.1693 16.6137 24.8469 15.8995 24.8469 15.2127C24.8469 12.0947 26.6234 9.05451 28.5144 7.2414C29.4896 6.29821 42.1951 10.2861 42.534 14.6221Z" fill="#1B1616"/>
<path d="M42.0992 15.5835C42.0992 15.5835 43.0469 14.4801 43.3857 15.3866C44.0084 17.0624 41.797 18.9259 41.7008 19.2555C41.6001 19.5898 42.0992 15.5835 42.0992 15.5835Z" fill="#FDCE8C"/>
<path d="M25.3323 15.5835C25.3323 15.5835 24.3846 14.4801 24.0458 15.3866C23.4231 17.0624 25.6345 18.9259 25.7307 19.2555C25.8314 19.5898 25.3323 15.5835 25.3323 15.5835Z" fill="#FDCE8C"/>
<path d="M57.0709 88.5614C57.0709 86.4552 55.2212 77.7926 54.0307 74.2991C53.6278 73.388 53.4264 72.9347 53.2844 72.2525C50.5831 64.6429 51.7781 58.352 52.1947 57.45C54.5161 52.4136 51.8284 48.2104 50.4274 45.5823C49.0264 42.9542 51.3294 34.2321 51.3294 34.2321C50.1802 33.8704 47.5429 33.2431 47.4056 33.2248C42.6072 47.1848 35.2769 48.1555 33.7156 48.0914C32.1543 48.1555 24.824 47.1894 20.0257 33.2248C19.8883 33.2431 17.2511 33.8704 16.1019 34.2321C16.1019 34.2321 18.4049 42.9497 17.0038 45.5823C15.6028 48.2104 12.9152 52.4136 15.2365 57.45C15.6532 58.352 16.8482 64.6475 14.1468 72.2525C14.0049 72.9347 13.8034 73.388 13.4005 74.2991C12.2101 77.7926 10.3604 86.4552 10.3604 88.5614C11.1067 88.7995 16.0881 90.5759 21.6145 94.312C27.1408 98.0482 31.5683 100.75 33.7111 100.763H33.7156H33.7202C35.863 100.754 40.2905 98.0482 45.8168 94.312C51.3431 90.5759 56.32 88.804 57.0709 88.5614Z" fill="#4594F3"/>
<path d="M52.1948 57.4454C52.2634 57.2989 52.323 57.1524 52.3825 57.0059C52.41 56.841 52.4328 56.6671 52.4603 56.5022C52.4603 56.5022 52.5244 56.4381 52.6297 56.3282C54.1178 51.7863 51.7232 48.009 50.4274 45.5778C51.801 49.0254 53.6187 54.2679 48.596 55.6643C42.4103 57.3813 38.7017 55.0646 33.7569 54.9776H33.6744C28.725 55.0646 25.0209 57.3813 18.8353 55.6643C13.8126 54.2725 15.6303 49.0254 17.0039 45.5778C15.7081 48.009 13.3135 51.7909 14.8016 56.3282C14.9069 56.4381 14.971 56.5022 14.971 56.5022C14.9985 56.6671 15.0214 56.841 15.0488 57.0059C15.1084 57.1524 15.1725 57.2989 15.2366 57.4454C15.6532 58.3474 16.8482 64.6429 14.1469 72.2479C17.9974 65.8013 15.6303 60.8519 19.1421 60.8519C23.7344 60.8519 26.6189 57.8758 33.7156 57.395C40.8124 57.8758 43.6969 60.8519 48.2892 60.8519C51.801 60.8519 49.4339 65.8013 53.2845 72.2479C50.5831 64.6429 51.7781 58.352 52.1948 57.4454Z" fill="#2D87F3"/>
</svg>
