<svg width="84" height="200" viewBox="0 0 84 200" fill="none" xmlns="http://www.w3.org/2000/svg">
<path d="M68.3995 85.451C67.632 81.1446 60.1958 78.4882 55.0898 79.5268C43.5173 81.8799 41.7524 100.438 41.7524 104.427C41.7524 117.613 43.9401 131.493 43.7379 133.051C42.8555 139.89 44.1423 141.365 43.9309 144.522C43.6781 148.36 42.2901 151.733 42.5981 159.004C42.9887 168.361 46.2334 178.987 45.8704 185.256C45.7876 186.722 45.59 188.298 45.3188 191.267C45.0523 194.149 43.9309 196.87 43.9585 197.904C44.0366 200.859 49.2622 199.852 50.572 199.765C52.1622 199.655 58.0495 198.942 57.5945 196.658C57.2958 195.165 55.7378 193.726 55.4069 191.189C55.223 189.778 53.6834 186.74 53.8167 185.987C54.9565 179.488 60.0442 165.277 59.1755 157.106C58.3942 149.752 57.7462 146.071 58.1782 142.615C58.601 139.219 58.1782 137.33 60.7703 130.33C64.5574 120.113 70.0908 100.084 68.3995 85.451Z" fill="#FDCE8C"/>
<path d="M76.7687 78.6306C76.0103 78.6214 74.6683 78.24 71.6534 74.0071C68.4455 69.5077 63.4727 56.2301 61.5148 48.8123C60.9174 46.5557 58.1552 43.8304 57.8105 43.141C53.5179 34.5283 58.8216 31.881 61.3632 32.4647C71.9659 34.9005 82.201 51.4366 82.6836 73.4556C82.7158 74.7425 83.851 78.6995 76.7687 78.6306Z" fill="#FDCE8C"/>
<path d="M82.1366 98.3011C82.3204 96.6971 80.937 96.4627 79.9995 96.1318C78.6161 95.6446 76.2768 95.9617 75.1646 97.3543C74.3557 98.995 72.7655 98.5354 71.1891 103.444C70.7663 104.763 70.3159 106.031 70.0263 107.203C69.9942 107.318 72.214 107.272 72.8253 106.05C74.3143 103.104 74.6866 103.609 75.5001 102.626C75.2289 103.982 76.2446 105.838 74.3051 108.876C73.0826 110.793 71.6257 111.772 72.43 112.728C73.2343 113.684 77.8302 111.556 80.6981 106.041C81.8792 103.756 82.757 100.971 82.1366 98.3011Z" fill="#FDCE8C"/>
<path d="M74.9119 97.9839C75.229 100.034 77.8992 99.62 78.7954 99.6706C79.6917 99.7211 81.8425 99.3764 82.0677 97.846C82.2056 96.8854 82.0907 95.7503 82.2378 94.5691C83.9521 80.8273 84.4025 75.4915 80.5695 69.8569C79.733 68.6298 77.7614 66.534 75.8587 67.1959C73.1792 68.1196 72.1911 66.4513 71.0881 76.3693C70.2195 84.2191 74.9119 97.9839 74.9119 97.9839Z" fill="#FDCE8C"/>
<path d="M15.1099 85.451C15.8774 81.1446 23.3136 78.4882 28.4197 79.5268C39.9922 81.8799 41.757 100.438 41.757 104.427C41.757 117.613 39.5694 131.493 39.7716 133.051C40.654 139.89 39.3671 141.365 39.5786 144.522C39.8313 148.36 41.2193 151.733 40.9114 159.004C40.5207 168.361 37.276 178.987 37.6391 185.256C37.7218 186.722 37.9149 188.298 38.1906 191.267C38.4572 194.149 39.5786 196.87 39.551 197.904C39.4728 200.859 34.2473 199.852 32.9375 199.765C31.3473 199.655 25.4599 198.942 25.9149 196.658C26.2137 195.165 27.7717 193.726 28.1026 191.189C28.2864 189.778 29.826 186.74 29.6927 185.987C28.553 179.488 23.4653 165.277 24.3339 157.106C25.1152 149.752 25.7632 146.071 25.3312 142.615C24.9084 139.219 25.3312 137.33 22.7392 130.33C18.9521 120.113 13.4186 100.084 15.1099 85.451Z" fill="#FDCE8C"/>
<path d="M6.74076 78.6306C7.49909 78.6214 8.84107 78.24 11.856 74.0071C15.0639 69.5077 20.0367 56.2301 21.9946 48.8123C22.592 46.5557 25.3542 43.8304 25.6989 43.141C29.9915 34.5283 24.6878 31.881 22.1416 32.4647C11.5389 34.9005 1.30378 51.4366 0.821213 73.4556C0.793638 74.7425 -0.346132 78.6995 6.74076 78.6306Z" fill="#FDCE8C"/>
<path d="M1.37286 98.3011C1.18902 96.6971 2.57239 96.4628 3.50996 96.1318C4.89333 95.6447 7.23265 95.9618 8.34486 97.3544C9.15374 98.9951 10.7439 98.5355 12.3203 103.444C12.7431 104.763 13.1935 106.031 13.4831 107.203C13.5153 107.318 11.2954 107.272 10.6842 106.05C9.19509 103.104 8.82282 103.609 8.00934 102.626C8.2805 103.982 7.26482 105.838 9.2043 108.876C10.4314 110.793 11.8837 111.772 11.0794 112.728C10.2751 113.684 5.67923 111.556 2.81138 106.041C1.63023 103.756 0.752412 100.971 1.37286 98.3011Z" fill="#FDCE8C"/>
<path d="M8.59754 97.984C8.28042 100.034 5.61019 99.6201 4.71399 99.6707C3.81779 99.7212 1.6669 99.3765 1.4417 97.8461C1.30383 96.8856 1.41873 95.7504 1.27166 94.5692C-0.442618 80.8275 -0.893015 75.4916 2.93997 69.857C3.77643 68.6299 5.74808 66.5342 7.65078 67.196C10.3302 68.1198 11.3183 66.4514 12.4213 76.3694C13.29 84.2192 8.59754 97.984 8.59754 97.984Z" fill="#FDCE8C"/>
<path d="M63.2153 60.6148C65.1318 55.5134 64.1024 51.1473 62.2916 45.1266C61.1518 41.3396 61.3448 37.1757 62.6041 32.8693C59.0331 31.5181 52.4701 30.3783 51.0914 29.5327C48.2097 27.7679 48.3522 24.6426 48.8118 21.6185C49.184 19.1919 43.6092 19.8399 42.1936 19.702V19.6699H41.7708H41.7525H41.7341H41.3112V19.702C39.8957 19.8399 34.3254 19.1873 34.6931 21.6185C35.1527 24.6472 35.2952 27.7679 32.4136 29.5327C31.0348 30.3737 24.4718 31.5181 20.9008 32.8693C22.1601 37.1757 22.3531 41.3442 21.2133 45.1266C19.3979 51.1473 18.3685 55.5134 20.2896 60.6148C21.3144 63.3402 12.9315 76.5994 15.1559 94.096C15.3306 95.461 26.8709 93.1079 31.2094 94.9463C34.3071 96.2607 37.1382 103.895 41.3066 104.4C41.3112 104.4 41.3158 104.4 41.3204 104.4C41.4629 104.418 41.6054 104.428 41.7479 104.428C41.8949 104.428 42.0374 104.418 42.1753 104.4C42.1799 104.4 42.1845 104.4 42.189 104.4C46.3575 103.89 49.1886 96.2561 52.2863 94.9463C56.6248 93.1079 68.1697 95.461 68.3398 94.096C70.5734 76.604 62.1905 63.3402 63.2153 60.6148Z" fill="#FDCE8C"/>
<path d="M53.7202 8.04673C53.5777 7.31139 53.8029 6.66336 53.5317 5.951C53.3295 5.40868 52.7045 4.98586 52.3828 4.52167C51.9783 3.94258 51.8496 3.4738 51.3946 2.9177C50.8937 2.30644 50.2457 2.20073 49.5655 1.84685C48.6187 1.35049 48.2281 0.831153 47.1756 0.619742C45.3694 0.256665 43.7195 -0.0374737 41.8122 0.00388953H41.7478H41.6881C39.7854 -0.0374737 38.1354 0.256665 36.3247 0.619742C35.2722 0.831153 34.8815 1.3459 33.9348 1.84685C33.2546 2.20533 32.6065 2.30644 32.1056 2.9177C31.6506 3.4738 31.5219 3.94258 31.1175 4.52167C30.7958 4.98586 30.1707 5.40868 29.9685 5.951C29.6973 6.66336 29.9271 7.31598 29.7801 8.04673C29.6468 8.73612 29.2791 9.42091 29.3526 10.1379C29.4308 10.8456 29.8674 11.4569 29.7341 12.2244C29.6054 12.9873 29.8214 13.7916 30.2305 14.5132C30.7774 15.4829 30.3316 15.9195 30.7084 16.9444C31.1497 18.1439 31.7609 19.3159 32.6571 20.327C33.659 21.4576 35.0332 22.3906 36.6648 22.7536L41.6835 22.9651H41.7432H41.8076L46.8263 22.7536C48.4579 22.3906 49.832 21.4622 50.8339 20.327C51.7255 19.3205 52.3414 18.1485 52.7826 16.9444C53.1595 15.9195 52.7137 15.4829 53.2606 14.5132C53.665 13.7916 53.881 12.9873 53.7569 12.2244C53.6283 11.4569 54.0648 10.8456 54.1384 10.1379C54.2211 9.42091 53.8535 8.73612 53.7202 8.04673Z" fill="#1B1616"/>
<path d="M50.7467 14.3615C50.7467 14.3615 51.3901 13.0149 51.8405 13.9755C52.6632 15.7495 51.0408 18.1026 51.0086 18.4841C50.9811 18.8655 50.7467 14.3615 50.7467 14.3615Z" fill="#FDCE8C"/>
<path d="M32.7629 14.3615C32.7629 14.3615 32.1195 13.0149 31.6691 13.9755C30.8464 15.7495 32.4733 18.1026 32.5009 18.4841C32.5285 18.8655 32.7629 14.3615 32.7629 14.3615Z" fill="#FDCE8C"/>
<path opacity="0.1" d="M48.7887 21.7793C47.2629 22.2343 45.4751 22.7628 45.0752 23.0386C44.2434 23.6177 42.598 24.1416 41.8765 24.1922V24.1784C41.8351 24.1876 41.8029 24.1921 41.7662 24.1967C41.7616 24.1967 41.757 24.1967 41.7524 24.1967C41.7478 24.1967 41.7432 24.1967 41.7386 24.1967C41.7018 24.1921 41.6697 24.1876 41.6283 24.1784V24.1922C40.9067 24.1416 39.2614 23.6131 38.4295 23.0386C38.0251 22.7582 36.2373 22.2343 34.7161 21.7793C34.9596 23.4338 35.2308 24.5322 34.8172 25.9937C36.4717 28.0114 39.1925 30.2082 41.7386 30.2082C41.7432 30.2082 41.7478 30.2082 41.7524 30.2082C41.757 30.2082 41.7616 30.2082 41.7662 30.2082C44.3123 30.2082 47.0331 28.0114 48.6876 25.9937C48.274 24.5322 48.5452 23.4338 48.7887 21.7793Z" fill="#231300"/>
<path d="M50.5857 13.0471C49.8044 11.1031 50.0204 10.0092 49.6849 8.88323C49.3356 7.71128 49.0829 7.24249 48.5038 6.96674C47.3916 6.43821 46.0312 7.08164 41.8167 6.99431H41.757H41.6972C37.4828 7.08164 36.1224 6.43821 35.0102 6.96674C34.4311 7.24249 34.1783 7.71128 33.829 8.88323C33.4935 10.0092 33.7049 11.1077 32.9282 13.0471C31.0899 17.6293 32.7996 20.0881 33.5671 22.579C34.284 24.9046 37.5747 28.5078 41.7018 28.5078H41.7616H41.8213C45.9484 28.5078 49.2391 24.9046 49.9561 22.579C50.7144 20.0835 52.4241 17.6293 50.5857 13.0471Z" fill="#FDCE8C"/>
<path d="M63.1326 61.2168C63.1326 61.1157 63.1372 61.0192 63.1464 60.9319C63.1464 60.9181 63.1464 60.8997 63.151 60.8859C63.1648 60.7894 63.1878 60.6975 63.2154 60.6148C63.3211 60.3344 63.4176 60.0541 63.5049 59.7783C63.5187 59.7324 63.5325 59.6864 63.5463 59.6404C63.8128 58.7764 63.9921 57.9308 64.107 57.0897C64.1116 57.1081 64.1208 57.1219 64.1254 57.1403C64.5022 54.6539 64.3138 52.1353 63.5187 49.75C62.264 45.9722 61.0185 43.9408 60.3705 39.7264C60.3153 39.3587 60.2004 39.0048 60.1269 38.6325C60.1269 38.6233 60.1223 38.6188 60.1223 38.6096C60.0764 38.3936 60.035 38.1821 59.9936 37.9615C59.9615 37.7823 59.9293 37.5985 59.8971 37.4146C59.8787 37.3181 59.8604 37.2216 59.8466 37.1205C59.5294 35.2913 59.318 33.4575 59.2951 31.8398C59.2767 31.8352 59.2629 31.8306 59.2445 31.826C59.0607 31.7754 58.8768 31.7295 58.693 31.6789C58.6378 31.6651 58.5827 31.6513 58.5321 31.6376C58.3713 31.5962 58.2058 31.5548 58.045 31.5135C57.9668 31.4951 57.8841 31.4721 57.806 31.4537C57.6911 31.4262 57.5716 31.394 57.4567 31.3664C56.5835 31.1458 55.7194 30.9344 54.9151 30.7322C54.6486 30.6632 54.3866 30.5989 54.1384 30.5345C54.1568 38.0443 49.0829 44.3958 42.6165 44.906C42.5522 44.9106 42.4924 44.9151 42.4281 44.9197C42.3315 44.9243 42.235 44.9289 42.1339 44.9289C42.0098 44.9335 41.8811 44.9381 41.757 44.9381C41.6284 44.9381 41.5043 44.9335 41.3802 44.9289C41.2837 44.9243 41.1826 44.9243 41.0861 44.9197C41.0217 44.9151 40.962 44.9106 40.8976 44.906C34.4358 44.4004 29.3573 38.0443 29.3757 30.5345C29.1229 30.5989 28.8655 30.6678 28.599 30.7322C27.7947 30.9344 26.9306 31.1458 26.0574 31.3664C25.9425 31.394 25.823 31.4262 25.7081 31.4537C25.63 31.4721 25.5473 31.4951 25.4692 31.5135C25.3083 31.5548 25.1428 31.5962 24.982 31.6376C24.9268 31.6513 24.8717 31.6651 24.8211 31.6789C24.6373 31.7295 24.4534 31.7754 24.2696 31.826C24.2512 31.8306 24.2374 31.8352 24.2191 31.8398C24.1961 33.4575 23.9847 35.2913 23.6675 37.1205C23.6492 37.2216 23.6354 37.3181 23.617 37.4146C23.5848 37.5985 23.5572 37.7823 23.5205 37.9615C23.4791 38.1775 23.4378 38.3936 23.3918 38.6096C23.3918 38.6188 23.3872 38.6233 23.3872 38.6325C23.3091 39.0002 23.1988 39.3587 23.1436 39.7264C22.4956 43.9454 21.2501 45.9722 19.9954 49.75C19.2003 52.1353 19.0119 54.6585 19.3888 57.1403C19.3933 57.1219 19.4026 57.1081 19.4072 57.0897C19.5175 57.9308 19.7013 58.7764 19.9678 59.6404C19.9816 59.6864 19.9954 59.7324 20.0092 59.7783C20.0965 60.0541 20.1931 60.3344 20.2988 60.6148C20.3309 60.6975 20.3493 60.7848 20.3631 60.8859C20.3631 60.8997 20.3631 60.9181 20.3677 60.9319C20.3769 61.0192 20.3861 61.1157 20.3861 61.2168C20.3631 64.604 14.3424 75.4136 14.825 89.7115C14.8066 90.4376 14.8021 91.1776 14.8112 91.9221C23.5205 101.872 37.8368 102.814 41.1182 102.902C41.4583 102.911 41.6789 102.911 41.7616 102.911C41.8444 102.911 42.0696 102.911 42.4051 102.902C45.6866 102.814 60.0074 101.872 68.7121 91.9221C68.7213 91.1776 68.7167 90.4422 68.6983 89.7115C69.1717 75.4136 63.1556 64.604 63.1326 61.2168Z" fill="#4594F3"/>
<path d="M65.302 93.14C59.1297 97.2763 51.8635 101.491 41.7571 101.564C31.6507 101.486 24.3846 97.2763 18.2123 93.14C17.0633 92.3725 15.9051 91.6739 14.8021 91.0673C14.8021 91.6372 14.8067 92.207 14.8205 92.7861C14.8251 92.8964 14.8251 93.0067 14.8297 93.117C14.8435 93.6226 14.8665 94.1327 14.8894 94.6475C14.894 94.7256 14.8941 94.7991 14.8986 94.8773C14.9308 95.4747 14.9676 96.0722 15.0135 96.6743C15.0181 96.7202 15.0227 96.7616 15.0227 96.8076C15.0641 97.3545 15.1146 97.9014 15.1652 98.4483C15.179 98.5632 15.1882 98.6781 15.202 98.7976C15.2617 99.3721 15.3214 99.9466 15.3904 100.521C15.3904 100.535 15.395 100.549 15.395 100.562C15.4685 101.174 15.5467 101.785 15.634 102.396C15.6478 102.488 15.6615 102.58 15.6753 102.677C15.7489 103.196 15.827 103.72 15.9097 104.239C15.9281 104.34 15.9419 104.441 15.9603 104.547C16.0568 105.149 16.1579 105.751 16.2636 106.353C18.7362 106.84 21.7373 107.295 25.3267 107.608C32.4688 108.238 39.5511 107.249 41.7295 106.9C41.7295 106.896 41.7295 106.886 41.7295 106.882C41.7433 106.068 41.7526 105.255 41.7526 104.446C41.7526 105.255 41.7617 106.073 41.7755 106.882C41.7755 106.886 41.7755 106.896 41.7755 106.9C43.9586 107.249 51.0363 108.238 58.1783 107.608C61.7677 107.291 64.7689 106.84 67.2415 106.353C67.3472 105.751 67.4483 105.149 67.5448 104.547C67.5632 104.446 67.577 104.345 67.5954 104.239C67.6781 103.72 67.7562 103.2 67.8297 102.677C67.8435 102.585 67.8573 102.488 67.8711 102.396C67.9584 101.785 68.0366 101.174 68.1101 100.562C68.1101 100.549 68.1147 100.535 68.1147 100.521C68.1836 99.9466 68.248 99.3721 68.3031 98.7976C68.3123 98.6827 68.3261 98.5632 68.3399 98.4483C68.395 97.9014 68.441 97.3545 68.487 96.8076C68.4916 96.7616 68.4962 96.7202 68.4962 96.6743C68.5421 96.0722 68.5789 95.4701 68.6111 94.8773C68.6157 94.7991 68.6156 94.7256 68.6202 94.6475C68.6478 94.1327 68.6662 93.6226 68.68 93.117C68.6846 93.0067 68.6846 92.8964 68.6892 92.7861C68.703 92.2116 68.7122 91.6372 68.7076 91.0673C67.6091 91.6739 66.4464 92.3679 65.302 93.14Z" fill="#666666"/>
</svg>
