<svg width="57" height="200" viewBox="0 0 57 200" fill="none" xmlns="http://www.w3.org/2000/svg">
<path d="M44.7515 45.2949C49.0757 34.4314 48.1927 34.5646 48.1927 34.5646C46.7539 33.3795 45.8276 32.8283 42.213 31.9004C39.4577 31.1931 37.1478 32.199 34.5186 29.0525C33.0917 27.3392 32.8789 24.822 32.7764 21.9098C32.6896 19.4569 29.9935 19.8841 28.7794 19.7463V19.7141H28.4168H28.401H28.3852H28.0226V19.7463C26.8085 19.8841 24.1163 19.4569 24.0256 21.9098C23.9231 24.822 23.7103 27.3392 22.2833 29.0525C19.6542 32.199 17.3482 31.1931 14.589 31.9004C10.9743 32.8237 10.048 33.3795 8.60927 34.5646C8.60927 34.5646 7.72631 34.4268 12.0505 45.2949C12.2948 45.9104 13.2645 52.8648 14.9674 59.7963C16.5993 66.443 16.1972 73.8338 16.276 77.7611C16.3431 81.1465 15.874 81.1924 15.3813 83.039C14.3603 86.8653 12.8152 88.9461 12.4762 95.5055C12.4052 96.879 15.6375 93.1124 19.3585 94.9497C22.0153 96.2588 24.4434 103.893 28.0186 104.403C28.0226 104.403 28.0265 104.403 28.0305 104.403C28.1527 104.421 28.2748 104.431 28.397 104.431C28.5192 104.431 28.6454 104.421 28.7636 104.403C28.7676 104.403 28.7715 104.403 28.7755 104.403C32.3507 103.893 34.7788 96.2634 37.4356 94.9497C41.1566 93.1124 44.3889 96.879 44.3179 95.5055C43.9789 88.9415 42.4337 86.8653 41.4128 83.039C40.9201 81.1878 40.4471 81.1465 40.518 77.7611C40.5969 73.8338 40.1948 66.4384 41.8267 59.7963C43.5374 52.8648 44.5071 45.9104 44.7515 45.2949Z" fill="#F4F4F4"/>
<path d="M44.3256 95.51C44.3296 95.4779 43.7777 89.929 42.5518 86.5161C41.9093 85.7811 40.8923 82.1202 36.5366 83.2869C30.5451 84.89 30.4978 91.2611 30.0603 95.0001C29.8435 96.8513 29.7016 100.131 29.6819 104.123C29.6464 111.445 30.0169 121.146 31.0694 128.757C31.3019 130.443 31.0418 132.124 30.9866 133.695C30.7974 139.056 31.8656 141.311 31.6882 144.467C31.4714 148.302 30.281 151.674 30.5451 158.941C30.8802 168.293 33.1309 179.073 32.8195 185.339C32.7486 186.804 32.583 188.38 32.3465 191.347C32.1179 194.227 31.1561 196.951 31.1797 197.98C31.2468 200.934 34.0888 199.804 35.2122 199.712C36.5761 199.601 41.6255 198.889 41.2352 196.607C40.979 195.114 39.2644 193.676 38.9805 191.14C38.8229 189.73 37.6088 186.708 37.6167 185.941C37.7349 172.114 40.3996 164.852 40.6361 156.846C40.8056 151.104 40.5336 147.801 40.2143 144.338C39.895 140.875 41.2274 134.233 41.8344 129.804C43.7265 115.965 45.2953 108.225 44.3256 95.51Z" fill="#F4F4F4"/>
<path d="M27.1238 104.118C27.1041 100.131 26.9622 96.8468 26.7454 94.9956C26.3039 91.2566 26.2606 84.8855 20.269 83.2824C15.9134 82.1157 14.8964 85.7813 14.2539 86.5116C13.028 89.9199 12.4761 95.4734 12.4801 95.5055C11.5104 108.22 13.0753 115.96 14.9713 129.795C15.5783 134.223 16.9106 140.866 16.5913 144.329C16.276 147.792 16.0001 151.095 16.1696 156.837C16.4061 164.843 19.0707 172.105 19.189 185.932C19.1969 186.699 17.9828 189.721 17.8251 191.131C17.5413 193.671 15.8266 195.109 15.5704 196.597C15.1802 198.88 20.2257 199.588 21.5935 199.703C22.7169 199.794 25.5589 200.924 25.6259 197.971C25.6496 196.942 24.6878 194.223 24.4592 191.338C24.2226 188.371 24.0571 186.795 23.9861 185.33C23.6747 179.064 25.9255 168.284 26.2606 158.931C26.5207 151.665 25.3342 148.293 25.1174 144.458C24.9401 141.302 26.0083 139.047 25.8191 133.686C25.7639 132.115 25.5037 130.434 25.7363 128.748C26.7887 121.141 27.1593 111.44 27.1238 104.118Z" fill="#F4F4F4"/>
<path d="M52.4814 80.1819C51.8428 80.3243 49.1072 78.7947 49.0875 73.6041C49.0797 71.0134 45.4296 62.07 43.6282 48.3357C43.3246 46.0298 41.3892 42.9063 41.267 42.153C40.4156 36.9716 42.1421 32.9753 42.2131 31.9005C48.9102 32.6859 50.7904 36.7695 51.0427 43.3059C51.2082 47.564 52.8874 51.1882 53.8807 56.2502C54.7676 60.7885 55.3865 68.634 55.355 73.6684C55.3432 74.9546 55.3589 79.5388 52.4814 80.1819Z" fill="#F4F4F4"/>
<path d="M55.7768 97.3934C55.7886 95.6662 54.7007 94.6924 53.798 94.6924C52.8599 94.6924 52.8007 95.7995 51.9375 97.3934C51.3699 99.2216 49.7064 99.6396 48.7604 105.028C48.5042 106.475 48.2243 107.876 48.0745 109.153C48.0588 109.277 49.0718 109.672 49.5054 108.307C50.5578 105.018 50.9441 105.519 51.5788 104.389C51.4645 105.864 51.9138 107.297 50.4632 110.728C49.5488 112.896 48.3386 114.081 49.1506 115.018C49.9626 115.955 53.8808 113.222 55.9266 107.053C56.7701 104.509 56.2932 99.9657 55.7768 97.3934Z" fill="#F4F4F4"/>
<path d="M51.9375 97.3934C52.2607 99.4329 52.9505 99.0057 53.7191 99.0333C54.4878 99.0562 55.623 98.9322 55.7768 97.3934C55.8714 96.4334 56.0527 94.8487 56.1473 93.6682C57.2707 79.8879 56.3877 73.3698 54.4839 69.199C53.8847 67.8899 52.9702 66.5716 51.3541 67.2882C48.9772 68.3401 49.0521 72.0975 49.0836 73.6087C49.2689 82.0698 50.8495 89.4973 51.6103 94.9635C51.7364 95.8409 51.9375 97.3934 51.9375 97.3934Z" fill="#F4F4F4"/>
<path d="M4.32857 80.1818C4.96714 80.3242 7.70274 78.7946 7.72245 73.604C7.73033 71.0134 11.3804 62.07 13.1818 48.3356C13.4853 46.0297 15.4208 42.9062 15.543 42.1529C16.3944 36.9715 14.6679 32.9753 14.5969 31.9004C7.89983 32.6859 6.0196 36.7694 5.76732 43.3059C5.60177 47.5639 3.91863 51.1882 2.92924 56.2501C2.04234 60.7884 1.42348 68.634 1.45501 73.6683C1.46289 74.9545 1.44713 79.5387 4.32857 80.1818Z" fill="#F4F4F4"/>
<path d="M1.0297 97.3934C1.01787 95.6662 2.10581 94.6924 3.00453 94.6924C3.94268 94.6924 4.00181 95.7995 4.869 97.3934C5.43662 99.2216 7.10005 99.6396 8.04608 105.028C8.29835 106.475 8.58216 107.876 8.72801 109.153C8.74378 109.277 7.73074 109.672 7.29714 108.307C6.24468 105.018 5.85839 105.519 5.22376 104.389C5.33807 105.864 4.88871 107.297 6.33929 110.728C7.25378 112.896 8.46391 114.081 7.6519 115.018C6.83989 115.955 2.92176 113.222 0.87597 107.053C0.0363691 104.509 0.513325 99.9657 1.0297 97.3934Z" fill="#F4F4F4"/>
<path d="M4.86853 97.3934C4.54531 99.4329 3.85549 99.0057 3.08685 99.0333C2.3182 99.0562 1.18296 98.9322 1.02923 97.3934C0.93463 96.4334 0.753308 94.8487 0.658705 93.6682C-0.464704 79.8879 0.418256 73.3698 2.32214 69.199C2.92129 67.8899 3.83579 66.5716 5.45192 67.2882C7.82881 68.3401 7.75392 72.0975 7.72239 73.6087C7.53712 82.0698 5.95647 89.4973 5.1957 94.9635C5.07351 95.8409 4.86853 97.3934 4.86853 97.3934Z" fill="#F4F4F4"/>
<path d="M37.2661 8.10668C37.1597 7.36714 37.3292 6.71487 37.1282 5.9937C36.9744 5.45168 36.5132 5.0199 36.2728 4.55596C35.9732 3.9726 35.8747 3.49948 35.5396 2.93908C35.1651 2.32356 34.6843 2.21791 34.1797 1.85963C33.4741 1.35894 33.1864 0.839889 32.402 0.623998C31.0578 0.256524 29.828 -0.0374545 28.4089 0.00388626C26.9899 -0.0374545 25.764 0.256524 24.4198 0.623998C23.6354 0.835295 23.3437 1.35435 22.6421 1.85963C22.1375 2.21791 21.6527 2.32356 21.2822 2.93908C20.9432 3.49948 20.8486 3.9726 20.549 4.55596C20.3086 5.0199 19.8434 5.44709 19.6936 5.9937C19.4926 6.71028 19.6621 7.36714 19.5557 8.10668C19.4532 8.80028 19.5596 9.4893 19.6148 10.2105C19.67 10.9224 19.9972 11.5334 19.8986 12.3097C19.804 13.0768 19.9656 13.8852 20.2652 14.611C20.6712 15.5848 20.3401 16.0303 20.62 17.0592C20.9471 18.2673 21.4044 19.4478 22.0705 20.463C22.8155 21.6021 23.462 22.5392 24.6761 22.9021L28.4129 23.118L32.1497 22.9021C33.3638 22.5392 34.0102 21.6021 34.7552 20.463C35.4214 19.4478 35.8786 18.2673 36.2058 17.0592C36.4856 16.0303 36.1545 15.5894 36.5605 14.611C36.8641 13.8852 37.0217 13.0768 36.9271 12.3097C36.8325 11.5334 37.1558 10.9224 37.2109 10.2105C37.2622 9.4893 37.3647 8.80028 37.2661 8.10668Z" fill="#BCBCBC"/>
<path opacity="0.1" d="M32.7765 21.9145C32.7646 21.616 32.7134 21.3587 32.6346 21.1382C32.2364 21.4368 31.7831 21.7767 31.251 22.2039C30.5375 22.7827 29.1264 23.3063 28.5075 23.3569V23.3431C28.472 23.3523 28.4444 23.3569 28.4129 23.3615C28.409 23.3615 28.405 23.3615 28.4011 23.3615C28.3971 23.3615 28.3932 23.3615 28.3893 23.3615C28.3577 23.3569 28.3301 23.3523 28.2947 23.3431V23.3569C27.6758 23.3063 26.2646 22.7781 25.5512 22.2039C25.023 21.7767 24.5657 21.4368 24.1676 21.1382C24.0848 21.3587 24.0375 21.616 24.0257 21.9145C23.9863 23.017 23.9311 24.0643 23.801 25.0335C24.8219 27.1235 26.4657 29.2227 28.4011 29.2227C30.3326 29.2227 31.9802 27.1235 33.0012 25.0335C32.8711 24.0643 32.8159 23.017 32.7765 21.9145Z" fill="#231300"/>
<path d="M34.846 9.25969C34.5858 8.11593 34.3966 7.65659 33.963 7.39017C33.1313 6.87571 31.5546 7.61984 28.4051 7.53257C25.2556 7.61984 23.6789 6.87571 22.8472 7.39017C22.4136 7.65659 22.2244 8.12052 21.9642 9.25969C21.712 10.3575 21.3217 12.939 21.4557 13.7796C21.9642 16.972 21.6844 20.4584 22.7211 22.4015C23.2256 23.3477 25.4291 26.1221 25.839 26.5218C26.4815 27.1465 27.2856 27.5553 28.3618 27.5553C28.3775 27.5553 28.3933 27.5599 28.4051 27.5599C28.4169 27.5599 28.4327 27.5553 28.4485 27.5553C29.5246 27.5553 30.3287 27.1465 30.9712 26.5218C31.3812 26.1221 33.5846 23.3523 34.0892 22.4015C35.1259 20.463 34.846 16.9766 35.3545 13.7796C35.4885 12.939 35.0983 10.3621 34.846 9.25969Z" fill="#F4F4F4"/>
<path d="M21.7631 14.6477C21.7631 14.6477 21.164 13.4397 20.9511 14.4319C20.5569 16.2646 21.9563 18.2949 22.0193 18.6578C22.0785 19.0253 21.7631 14.6477 21.7631 14.6477Z" fill="#F4F4F4"/>
<path d="M35.043 14.6477C35.043 14.6477 35.6422 13.4397 35.855 14.4319C36.2492 16.2646 34.8499 18.2949 34.7868 18.6578C34.7277 19.0253 35.043 14.6477 35.043 14.6477Z" fill="#F4F4F4"/>
<path d="M43.3403 52.842C42.8752 51.193 42.548 48.8962 42.4653 46.0116C42.347 41.9418 43.1511 35.5524 43.4468 32.2359C43.3837 32.2175 43.3167 32.1992 43.2536 32.1808C43.2378 32.2543 43.226 32.2956 43.226 32.2956C43.2339 32.2543 43.2418 32.2175 43.2536 32.1808C42.9304 32.0935 42.5914 32.0017 42.2169 31.9052C41.1684 31.6388 40.25 31.6296 39.367 31.5561C38.0702 36.4205 34.9483 44.6519 28.6099 44.8311C28.5823 44.8311 28.5586 44.8357 28.531 44.8357C28.5113 44.8357 28.4956 44.8357 28.4758 44.8403C28.4522 44.8403 28.4285 44.8449 28.4049 44.8449C28.3812 44.8449 28.3576 44.8403 28.3339 44.8403C28.3142 44.8403 28.2985 44.8403 28.2788 44.8357C28.2512 44.8357 28.2275 44.8311 28.1999 44.8311C21.8655 44.6519 18.7396 36.4251 17.4428 31.5561C16.5598 31.6342 15.6414 31.6388 14.5929 31.9052C14.2184 32.0017 13.8755 32.0935 13.5562 32.1808C13.5641 32.2175 13.572 32.2543 13.5838 32.2956C13.5838 32.2956 13.572 32.2543 13.5562 32.1808C13.4931 32.1992 13.4222 32.2175 13.363 32.2359C13.6587 35.557 14.4628 41.9464 14.3445 46.0116C14.2618 48.8962 13.9346 51.193 13.4695 52.842C13.8834 54.9871 14.384 57.3895 14.9752 59.7964C16.6071 66.4431 16.2051 73.8339 16.2839 77.7613C16.3509 81.1466 15.8818 81.1926 15.3891 83.0391C14.8491 85.0602 14.1672 86.5944 13.5877 88.5558H28.4049H43.2221C42.6466 86.5944 41.9607 85.0602 41.4207 83.0391C40.928 81.188 40.4549 81.1466 40.5259 77.7613C40.6047 73.8339 40.2027 66.4385 41.8346 59.7964C42.4258 57.3941 42.9264 54.9871 43.3403 52.842Z" fill="#DDDDDD"/>
<path d="M44.3259 95.5103C44.0893 90.9352 43.2695 88.5421 42.4456 86.2132C40.2816 86.7139 35.8077 87.4213 28.4996 87.4213C28.468 87.4213 28.4365 87.4213 28.405 87.4213C28.3734 87.4213 28.3419 87.4213 28.3104 87.4213C21.0023 87.4213 16.5284 86.7139 14.3643 86.2132C13.5405 88.5421 12.7206 90.9352 12.4841 95.5103C12.1648 99.6949 12.1215 103.342 12.2752 106.842C13.4222 107.315 15.3734 107.94 18.0499 108.124C24.4829 108.565 27.12 106.856 27.12 106.856V106.828C27.1239 106.365 27.1278 105.905 27.1278 105.45C27.1278 105 27.1278 104.555 27.1278 104.118C27.2343 104.169 27.3407 104.21 27.4511 104.247C27.6403 104.316 27.8334 104.376 28.0305 104.403C28.0344 104.403 28.0384 104.403 28.0423 104.403C28.1645 104.422 28.2867 104.431 28.4089 104.431C28.5311 104.431 28.6572 104.422 28.7755 104.403C28.7794 104.403 28.7834 104.403 28.7873 104.403C28.9844 104.376 29.1776 104.316 29.3668 104.247C29.4732 104.206 29.5836 104.169 29.69 104.118C29.6861 104.555 29.6861 105 29.69 105.45C29.69 105.901 29.6939 106.36 29.6979 106.828V106.856C29.6979 106.856 32.3389 108.565 38.7679 108.124C41.4444 107.94 43.3956 107.315 44.5426 106.842C44.6885 103.342 44.6451 99.6949 44.3259 95.5103Z" fill="#C5C5C5"/>
</svg>
