<svg width="74" height="200" viewBox="0 0 74 200" fill="none" xmlns="http://www.w3.org/2000/svg">
<path d="M58.0348 77.267C57.4147 73.0869 55.8896 66.1369 57.3733 59.389C58.4023 54.7082 56.914 51.2493 56.914 50.5694C56.914 38.686 59.716 34.3221 59.716 34.3221C58.2415 34.0281 56.8083 33.2197 52.7476 31.9059C49.6194 30.8953 46.2891 30.436 44.9662 28.4746C43.6295 26.4947 43.6065 25.9665 43.4871 23.0542C43.386 20.6013 38.5123 19.8893 37.0975 19.7515V19.7193H36.8265H36.8081H36.7438H36.6795H36.6611H36.3901V19.7515C34.9753 19.8893 30.1016 20.6013 30.0005 23.0542C29.8811 25.9665 29.8535 26.4947 28.5214 28.4746C27.1984 30.436 23.8681 30.8953 20.74 31.9059C16.6793 33.2197 15.2461 34.0281 13.7716 34.3221C13.7716 34.3221 16.5736 38.6906 16.5736 50.5694C16.5736 51.2493 15.0853 54.7082 16.1143 59.389C17.598 66.1415 16.0729 73.0869 15.4528 77.267C14.9843 80.4044 13.5649 88.2179 13.5695 95.7421C13.5695 97.1156 21.971 93.1192 26.3073 94.9566C29.4033 96.2658 32.233 103.9 36.3993 104.41C36.4039 104.41 36.4085 104.41 36.4131 104.41C36.5003 104.419 36.583 104.419 36.6703 104.424V104.433C36.6979 104.433 36.7254 104.428 36.7576 104.428C36.7851 104.428 36.8127 104.433 36.8448 104.433V104.424C36.9321 104.419 37.0148 104.419 37.1021 104.41C37.1067 104.41 37.1113 104.41 37.1159 104.41C41.2822 103.9 44.1118 96.2704 47.2078 94.9566C51.5441 93.1192 59.9457 97.1202 59.9457 95.7421C59.9227 88.2179 58.4987 80.4089 58.0348 77.267Z" fill="#FDCE8C"/>
<path d="M60.0054 95.7422C59.7344 92.637 57.6305 85.2828 47.2078 86.7986C40.4875 87.7771 37.2031 100.418 37.1802 104.406C37.1388 111.728 38.6179 121.144 39.8444 128.756C40.1154 130.442 39.8123 132.123 39.7479 133.694C39.5275 139.055 40.7723 141.31 40.5656 144.466C40.313 148.301 38.9257 151.673 39.2335 158.94C39.6239 168.292 43.1288 179.073 42.7659 185.339C42.6832 186.804 42.4903 188.38 42.2147 191.347C41.9482 194.227 40.8274 196.951 40.855 197.98C40.9331 200.934 44.245 199.804 45.5542 199.712C47.1435 199.602 53.9098 198.89 53.455 196.607C53.1564 195.114 51.5992 193.676 51.2685 191.141C51.0848 189.73 49.67 186.708 49.6791 185.941C49.8169 172.114 53.6663 165.192 53.7858 156.979C53.8638 151.54 53.0784 147.801 52.7063 144.342C52.3342 140.878 55.0674 132.812 56.1836 128.466C58.7789 118.347 60.7633 104.433 60.0054 95.7422Z" fill="#FDCE8C"/>
<path d="M68.4667 79.5179C67.7179 79.6189 66.4134 78.9345 63.8088 74.442C61.0389 69.6648 56.28 56.4997 55.0168 48.9342C54.6356 46.6374 53.1013 43.1785 52.9038 42.439C51.5717 37.3356 53.3586 33.1555 53.3677 32.0806C57.4146 32.5399 65.2007 35.1123 66.8727 45.3788C67.3872 48.5438 67.4882 50.326 69.1373 54.4924C70.9334 59.0262 71.5122 67.7447 71.8108 72.77C71.8888 74.0516 72.2058 79.0126 68.4667 79.5179Z" fill="#FDCE8C"/>
<path d="M71.8704 98.7419C71.9347 97.0147 70.4648 96.8631 69.4542 96.5829C67.9659 96.1649 67.4239 96.4911 66.3719 98.0574C65.66 99.8673 63.9558 99.4906 62.7017 104.847C62.3664 106.284 61.9943 107.676 61.7922 108.949C61.7692 109.073 62.9406 109.5 63.4826 108.149C64.801 104.893 65.2328 105.407 66.0045 104.3C65.8299 105.77 66.3122 107.217 64.53 110.602C63.4045 112.738 61.9622 113.887 62.8809 114.847C63.7996 115.807 68.439 113.202 70.993 107.107C72.0495 104.58 72.7432 101.549 71.8704 98.7419Z" fill="#FDCE8C"/>
<path d="M66.2985 98.4158C66.2985 98.4158 66.2985 98.4112 66.2985 98.4158C66.62 100.46 67.7133 100.52 68.6044 100.57C69.5001 100.616 71.9623 102.104 72.1828 100.575C72.3206 99.6147 72.2011 98.4801 72.3481 97.2996C74.0385 83.5603 74.1672 76.3944 70.327 70.772C69.491 69.5455 67.5157 67.4554 65.614 68.1169C62.812 69.0907 62.6053 75.9764 62.6007 77.4877C62.5823 85.949 65.5313 90.9375 66.2617 96.4314C66.3811 97.3133 66.3536 97.9335 66.2985 98.4158Z" fill="#FDCE8C"/>
<path d="M13.4684 95.7422C13.7395 92.637 15.8433 85.2828 26.266 86.7986C32.9863 87.7771 36.2707 100.418 36.2937 104.406C36.335 111.728 34.8559 121.144 33.6294 128.756C33.3584 130.442 33.6616 132.123 33.7259 133.694C33.9464 139.055 32.7015 141.31 32.9082 144.466C33.1609 148.301 34.5481 151.673 34.2404 158.94C33.8499 168.292 30.345 179.073 30.7079 185.339C30.7906 186.804 30.9881 188.38 31.2591 191.347C31.5256 194.227 32.6464 196.951 32.6188 197.98C32.5408 200.934 29.2288 199.804 27.9197 199.712C26.3303 199.602 19.564 198.89 20.0188 196.607C20.3174 195.114 21.8746 193.676 22.2053 191.141C22.3891 189.73 23.7993 186.708 23.7947 185.941C23.6569 172.114 19.8075 165.192 19.6881 156.979C19.61 151.54 20.3955 147.801 20.7675 144.342C21.1396 140.878 18.4065 132.812 17.2903 128.466C14.6903 118.347 12.7059 104.433 13.4684 95.7422Z" fill="#FDCE8C"/>
<path d="M5.00264 79.5179C5.75139 79.6189 7.06054 78.9345 9.66047 74.442C12.4304 69.6648 17.1893 56.4997 18.4525 48.9342C18.8337 46.6374 20.368 43.1785 20.5609 42.439C21.893 37.3356 20.1061 33.1555 20.097 32.0806C16.0501 32.5399 8.26404 35.1123 6.592 45.3788C6.07293 48.5438 5.97647 50.326 4.32739 54.4924C2.53133 59.0262 1.95254 67.7447 1.65396 72.77C1.58046 74.0516 1.26811 79.0126 5.00264 79.5179Z" fill="#FDCE8C"/>
<path d="M1.59892 98.7418C1.53461 97.0146 3.00453 96.863 4.01511 96.5828C5.50341 96.1648 6.04545 96.4909 7.09737 98.0573C7.80937 99.8672 9.51356 99.4905 10.7676 104.847C11.1029 106.284 11.475 107.676 11.6771 108.949C11.7001 109.073 10.5287 109.5 9.98669 108.149C8.66835 104.892 8.23656 105.407 7.46485 104.3C7.6394 105.77 7.15708 107.217 8.93937 110.602C10.0648 112.738 11.5071 113.887 10.5884 114.847C9.66973 115.807 5.03029 113.202 2.47629 107.107C1.41978 104.58 0.730746 101.548 1.59892 98.7418Z" fill="#FDCE8C"/>
<path d="M7.17538 98.4157C7.17538 98.4157 7.17538 98.4111 7.17538 98.4157C6.85383 100.46 5.76517 100.52 4.86943 100.57C3.9737 100.616 1.51156 102.104 1.29107 100.575C1.15327 99.6146 1.27271 98.48 1.12571 97.2994C-0.564704 83.5602 -0.693325 76.3943 3.14686 70.7718C3.98288 69.5454 5.9581 67.4553 7.85982 68.1168C10.6619 69.0906 10.8686 75.9763 10.8732 77.4876C10.8961 85.9488 7.9425 90.9374 7.21213 96.4313C7.08811 97.3132 7.12026 97.9333 7.17538 98.4157Z" fill="#FDCE8C"/>
<path d="M58.0348 77.2669C57.4147 73.0868 55.8897 66.1368 57.3734 59.3889C58.4023 54.7081 57.3274 51.952 56.914 50.5694C56.8543 50.3718 56.7992 50.1835 56.7395 49.9906C54.902 43.9133 53.4643 39.7562 53.9879 32.0804C53.9879 32.0804 49.5414 30.9274 49.1004 30.8034C49.1004 30.8034 49.0912 30.8034 49.0912 30.7988C49.0866 30.8126 49.0866 30.831 49.0821 30.8448C48.2644 35.8104 43.7444 42.9349 38.8339 44.5105C38.1587 44.6988 37.4604 44.8091 36.7393 44.8229C36.0181 44.8091 35.3199 44.6988 34.6446 44.5105C29.7341 42.9395 25.2141 35.8104 24.3965 30.8448C24.3919 30.831 24.3919 30.8126 24.3873 30.7988C24.3873 30.7988 24.3781 30.7988 24.3781 30.8034C23.9371 30.9274 19.4906 32.0804 19.4906 32.0804C20.0188 39.7562 18.5765 43.9133 16.739 49.9906C16.6793 50.1835 16.6242 50.3718 16.5645 50.5694C16.1511 51.9474 15.0762 54.7081 16.1051 59.3889C17.5888 66.1414 16.0638 73.0868 15.4437 77.2669C15.1083 79.5361 14.2723 84.2445 13.8359 89.527C20.6298 93.3213 34.9432 93.551 36.6566 93.5647C36.6566 93.5647 36.6933 93.5647 36.7438 93.5647C36.7944 93.5647 36.8311 93.5647 36.8311 93.5647C38.5445 93.551 52.8579 93.3213 59.6518 89.527C59.2062 84.2491 58.3702 79.5361 58.0348 77.2669Z" fill="#4594F3"/>
<path d="M60.0056 95.7422C59.9872 95.5217 59.955 95.2736 59.9183 95.0164C59.8861 92.343 59.6886 89.6558 59.4222 87.1707C55.899 88.0664 47.9384 90.8133 36.7394 90.8271C25.5404 90.8133 17.5752 88.0664 14.0566 87.1707C13.7947 89.6558 13.5926 92.343 13.5604 95.0164C13.5191 95.2782 13.4916 95.5217 13.4732 95.7422C13.193 98.9255 13.2848 102.812 13.6385 106.95C15.3427 107.41 18.0575 107.956 21.668 108.126C29.3116 108.485 34.5804 107.456 36.257 107.07C36.2892 106.16 36.3076 105.269 36.303 104.406C36.303 104.401 36.303 104.396 36.303 104.392C36.3305 104.396 36.3581 104.401 36.3903 104.406C36.3949 104.406 36.3995 104.406 36.404 104.406C36.4913 104.415 36.574 104.415 36.6613 104.419V104.429C36.6888 104.429 36.7164 104.424 36.7486 104.424C36.7761 104.424 36.8037 104.429 36.8358 104.429V104.419C36.9231 104.415 37.0058 104.415 37.0931 104.406C37.0977 104.406 37.1023 104.406 37.1069 104.406C37.1344 104.401 37.1666 104.396 37.1941 104.392C37.1941 104.396 37.1941 104.401 37.1941 104.406C37.1895 105.265 37.2079 106.156 37.2401 107.07C38.9167 107.46 44.1855 108.489 51.8291 108.126C55.4396 107.956 58.1498 107.405 59.8586 106.95C60.1939 102.812 60.2812 98.9255 60.0056 95.7422Z" fill="#666666"/>
<path opacity="0.1" d="M43.6113 25.2085C43.547 24.6435 43.5194 23.9636 43.4826 23.0495C43.4689 22.728 43.3724 22.4386 43.2162 22.1722C42.7385 22.1354 36.7899 24.2393 36.7531 24.2438C36.7485 24.2438 36.7439 24.2438 36.7394 24.2438C36.7348 24.2438 36.7302 24.2438 36.7256 24.2438C36.6888 24.2393 30.7402 22.14 30.2625 22.1722C30.1063 22.4386 30.0052 22.728 29.996 23.0495C29.9593 23.9636 29.9271 24.6435 29.8674 25.2085C31.2225 27.3261 34.3875 29.7974 36.7302 29.7974C36.7302 29.7974 36.7485 29.7974 36.7531 29.7974C39.0866 29.7974 42.2516 27.3261 43.6113 25.2085Z" fill="#231300"/>
<path d="M47.874 8.10686C47.7408 7.36731 47.9521 6.71503 47.6995 5.99384C47.5066 5.45181 46.9232 5.02001 46.6246 4.55607C46.2479 3.97269 46.1239 3.49956 45.7013 2.93915C45.2328 2.32362 44.6264 2.21797 43.9925 1.85967C43.106 1.35898 42.7431 0.839908 41.7555 0.624012C40.065 0.25653 38.5216 -0.0374554 36.7393 0.00388635C34.957 -0.0374554 33.4136 0.25653 31.7232 0.624012C30.7356 0.835314 30.3727 1.35438 29.4862 1.85967C28.8477 2.21797 28.2459 2.32362 27.7728 2.93915C27.3502 3.49956 27.2261 3.97269 26.8495 4.55607C26.5463 5.02001 25.9629 5.44721 25.7746 5.99384C25.522 6.71043 25.7333 7.36731 25.6 8.10686C25.4714 8.80049 25.1315 9.48951 25.2004 10.2107C25.2693 10.9227 25.6781 11.5336 25.5587 12.3099C25.4393 13.0771 25.6414 13.8855 26.0226 14.6113C26.5325 15.5851 26.1191 16.0307 26.4682 17.0596C26.877 18.2677 27.4558 19.4483 28.2918 20.4634C29.2289 21.6026 30.5151 22.5397 32.0448 22.9026L36.7439 23.1185L41.4431 22.9026C42.9682 22.5397 44.2589 21.6026 45.196 20.4634C46.032 19.4483 46.6062 18.2677 47.0196 17.0596C47.3688 16.0307 46.9553 15.5897 47.4652 14.6113C47.8465 13.8855 48.0486 13.0771 47.9292 12.3099C47.8097 11.5336 48.2185 10.9227 48.2875 10.2107C48.3472 9.48951 48.0027 8.80049 47.874 8.10686Z" fill="#1B1616"/>
<path d="M45.4119 14.6481C45.4119 14.6481 46.1101 13.44 46.3582 14.4322C46.8175 16.265 45.1868 18.2954 45.1133 18.6583C45.0444 19.0258 45.4119 14.6481 45.4119 14.6481Z" fill="#FDCE8C"/>
<path d="M28.0575 14.6481C28.0575 14.6481 27.3593 13.44 27.1112 14.4322C26.6519 16.265 28.2826 18.2954 28.3561 18.6583C28.425 19.0258 28.0575 14.6481 28.0575 14.6481Z" fill="#FDCE8C"/>
<path d="M45.2602 13.7845C44.9432 12.0849 45.1499 10.3624 44.833 9.2645C44.5069 8.12071 44.268 7.66136 43.7214 7.39494C42.6786 6.88046 40.6942 7.62461 36.7346 7.53733C32.775 7.62461 30.7906 6.88046 29.7479 7.39494C29.2012 7.66136 28.9624 8.12531 28.6362 9.2645C28.3193 10.3624 28.526 12.0895 28.209 13.7845C27.543 17.3859 28.2504 19.5127 29.0451 22.2136C29.633 24.2118 32.1503 27.7075 36.7346 28.3276C41.3189 27.7075 43.8362 24.2072 44.4242 22.2136C45.2188 19.5127 45.9262 17.3813 45.2602 13.7845Z" fill="#FDCE8C"/>
</svg>
