<svg width="69" height="200" viewBox="0 0 69 200" fill="none" xmlns="http://www.w3.org/2000/svg">
<path d="M13.8416 50.5682C8.80259 39.7048 11.0396 34.3213 11.0396 34.3213C12.5141 34.0273 13.9472 33.2189 18.0078 31.9052C21.1359 30.8946 24.8796 30.4996 26.2071 28.5382C27.5437 26.5584 27.53 25.874 27.654 22.9618C27.755 20.5089 32.2474 19.8842 33.6622 19.7464V19.7142H34.0848H34.1031H34.1215H34.5441V19.7464C35.9589 19.8842 40.4513 20.5089 40.5523 22.9618C40.6717 25.874 40.6625 26.5584 41.9992 28.5382C43.3221 30.4996 47.0704 30.8946 50.1985 31.9052C54.2591 33.2189 55.6922 34.0273 57.1667 34.3213C57.1667 34.3213 59.4037 39.7048 54.3647 50.5682C54.0799 51.1837 53.5609 56.0895 52.1828 59.3876C49.5141 65.7633 50.5292 73.8339 50.4373 77.7613C50.3593 81.1466 50.9059 81.1925 51.48 83.0391C52.6697 86.8654 53.1475 88.9462 53.5425 95.5056C53.6252 96.8791 48.9766 93.1125 44.6404 94.9499C41.5445 96.259 38.7149 103.893 34.5487 104.403C34.5441 104.403 34.5395 104.403 34.5349 104.403C34.3925 104.421 34.2501 104.431 34.1077 104.431C33.9608 104.431 33.8184 104.421 33.6806 104.403C33.676 104.403 33.6714 104.403 33.6668 104.403C29.5005 103.893 26.671 96.2636 23.575 94.9499C19.2388 93.1125 14.5903 96.8791 14.673 95.5056C15.068 88.9417 15.5457 86.8654 16.7354 83.0391C17.3096 81.188 17.8608 81.1466 17.7781 77.7613C17.6863 73.8339 18.6968 65.7633 16.0326 59.3876C14.6454 56.0895 14.1264 51.1837 13.8416 50.5682Z" fill="#FDCE8C"/>
<path opacity="0.1" d="M34.1123 29.0572C31.8615 29.0572 28.9493 26.6273 27.5804 24.5924C27.6034 24.1882 27.6218 23.7335 27.6402 23.2052C27.6769 22.3646 28.2235 21.7399 28.9906 21.276C29.4913 21.5975 30.0793 21.9696 30.7683 22.4473C31.5997 23.0261 33.2441 23.5497 33.9653 23.6002V23.5865C34.0066 23.5956 34.0388 23.6002 34.0755 23.6048C34.1123 23.6002 34.1444 23.5956 34.1858 23.5865V23.6002C34.9069 23.5497 36.5514 23.0215 37.3828 22.4473C38.081 21.965 38.669 21.5883 39.1742 21.2668C39.9459 21.7307 40.5017 22.36 40.5385 23.2052C40.5615 23.7197 40.5752 24.1606 40.5982 24.5557C39.2385 26.5906 36.3447 29.0572 34.1123 29.0572Z" fill="#231300"/>
<path d="M37.1117 133.695C37.176 132.124 37.4792 130.443 37.2082 128.757C35.9817 121.146 35.55 111.445 35.5913 104.123C35.6143 100.136 35.7796 96.8515 36.0323 95.0004C36.5467 91.2613 35.3019 88.5834 44.5714 86.7965C49.6839 85.8135 51.5121 85.0189 52.2608 85.7492C52.5318 86.7919 52.7477 87.8209 52.9315 89.0243C53.1519 91.4175 53.3541 93.604 53.5332 95.6205C54.6632 108.335 54.8745 114.628 52.6696 128.463C51.9622 132.891 48.8203 140.875 49.1924 144.338C49.5599 147.802 50.35 151.536 50.2719 156.975C50.1524 165.192 46.3032 172.115 46.1654 185.936C46.1562 186.703 47.5709 189.726 47.7547 191.136C48.0854 193.676 49.6426 195.114 49.9411 196.602C50.3959 198.885 44.5163 199.593 42.9224 199.707C41.6133 199.799 38.3014 200.929 38.2233 197.976C38.1958 196.947 39.3166 194.227 39.583 191.343C39.8586 188.375 40.0515 186.8 40.1342 185.335C40.4971 179.069 36.9923 168.288 36.6019 158.936C36.2987 151.669 37.6813 148.298 37.934 144.462C38.1361 141.311 36.8912 139.056 37.1117 133.695Z" fill="#FDCE8C"/>
<path d="M14.6729 95.6204C14.6683 95.5883 14.6637 95.5515 14.6683 95.5102C14.8383 92.6806 15.022 90.6871 15.2746 89.0243C15.4584 87.8208 15.6743 86.7919 15.9453 85.7492C16.694 85.0142 18.5222 85.8089 23.6347 86.7965C32.9042 88.5787 31.6594 91.2613 32.1738 95.0003C32.4265 96.8514 32.5918 100.131 32.6148 104.123C32.6561 111.445 32.2244 121.146 30.9979 128.757C30.7269 130.443 31.0301 132.124 31.0944 133.695C31.3149 139.056 30.07 141.311 30.2767 144.467C30.5294 148.302 31.9166 151.674 31.6088 158.941C31.2184 168.293 27.7136 179.074 28.0765 185.339C28.1592 186.804 28.3521 188.38 28.6277 191.347C28.8941 194.227 30.0149 196.951 29.9874 197.98C29.9093 200.934 26.5974 199.804 25.2883 199.712C23.699 199.602 17.8148 198.89 18.2695 196.607C18.5681 195.114 20.1253 193.676 20.456 191.141C20.6398 189.73 22.0499 186.708 22.0453 185.941C21.9075 172.115 18.0583 165.192 17.9388 156.979C17.8607 151.541 18.6462 147.802 19.0183 144.343C19.3903 140.879 16.2485 132.896 15.5411 128.468C13.3316 114.623 13.5429 108.335 14.6729 95.6204Z" fill="#FDCE8C"/>
<path d="M2.79892 77.3846C2.27987 78.7764 3.98403 79.8604 5.6055 80.182C6.34504 80.329 7.61742 79.4608 9.91872 74.8077C12.367 69.856 15.1644 55.9655 15.9223 48.3358C16.152 46.0161 18.5314 42.9064 18.6738 42.1531C19.666 36.9717 16.8594 33.3888 16.7767 32.314C13.5935 32.4426 7.72766 33.3015 6.10618 38.4094C5.66981 39.7875 4.88434 41.804 4.92568 46.0115C4.95783 49.2177 4.64088 50.9862 3.27204 55.2581C1.77918 59.902 1.77918 68.6387 1.81593 73.6731C1.82512 74.9547 3.18018 76.3649 2.79892 77.3846Z" fill="#FDCE8C"/>
<path d="M0.947784 99.2264C0.934003 97.4992 2.40849 97.389 3.42364 97.1363C4.92109 96.7597 5.45392 97.0996 6.46448 98.6935C7.12593 100.522 8.83928 100.196 9.9417 105.584C10.2357 107.031 10.5664 108.432 10.7409 109.709C10.7593 109.833 9.57882 110.228 9.07354 108.863C7.8471 105.574 7.39694 106.075 6.6574 104.945C6.79061 106.42 6.26696 107.853 7.95734 111.284C9.02301 113.452 10.4332 114.637 9.48695 115.574C8.5407 116.511 3.97484 113.778 1.59086 107.614C0.603274 105.06 0.00153932 102.005 0.947784 99.2264Z" fill="#FDCE8C"/>
<path d="M6.5288 99.0563C6.5288 99.0563 6.5288 99.0517 6.5288 99.0563C6.15214 101.091 5.05891 101.119 4.1632 101.146C3.26748 101.169 1.12695 100.765 0.947804 99.2263C0.837562 98.2663 0.989143 97.1317 0.874307 95.9466C-0.434817 82.1663 -0.728793 76.8242 3.26748 71.3075C4.13564 70.104 6.17052 68.0737 8.05382 68.7857C10.8237 69.8376 10.5572 74.7204 10.5205 76.2316C10.3046 84.6927 7.5072 91.6012 6.62067 97.072C6.47368 97.9493 6.48746 98.5694 6.5288 99.0563Z" fill="#FDCE8C"/>
<path d="M65.4072 77.3846C65.9263 78.7764 64.2221 79.8604 62.6007 80.182C61.8611 80.329 60.5887 79.4608 58.2874 74.8077C55.8392 69.856 53.0418 55.9655 52.2838 48.3358C52.0542 46.0161 49.6748 42.9064 49.5324 42.1531C48.5402 36.9717 51.3468 33.3888 51.4295 32.314C54.6127 32.4426 60.4785 33.3015 62.1 38.4094C62.5364 39.7875 63.3218 41.804 63.2805 46.0115C63.2483 49.2177 63.5653 50.9862 64.9341 55.2581C66.427 59.902 66.427 68.6387 66.3902 73.6731C66.381 74.9547 65.026 76.3649 65.4072 77.3846Z" fill="#FDCE8C"/>
<path d="M67.2584 99.2264C67.2721 97.4992 65.7976 97.389 64.7825 97.1363C63.285 96.7597 62.7522 97.0996 61.7416 98.6935C61.0802 100.522 59.3668 100.196 58.2644 105.584C57.9659 107.031 57.6397 108.432 57.4652 109.709C57.4468 109.833 58.6273 110.228 59.1326 108.863C60.359 105.574 60.8092 106.075 61.5487 104.945C61.4155 106.42 61.9392 107.853 60.2488 111.284C59.1831 113.452 57.7729 114.637 58.7192 115.574C59.6654 116.511 64.2313 113.778 66.6153 107.614C67.5983 105.06 68.2046 102.005 67.2584 99.2264Z" fill="#FDCE8C"/>
<path d="M61.6774 99.0563C61.6774 99.0563 61.6774 99.0517 61.6774 99.0563C62.0541 101.091 63.1473 101.119 64.043 101.146C64.9387 101.169 67.0793 100.765 67.2584 99.2263C67.3686 98.2663 67.2171 97.1317 67.3319 95.9466C68.641 82.1663 68.935 76.8242 64.9387 71.3075C64.0706 70.104 62.0357 68.0737 60.1524 68.7857C57.3826 69.8376 57.649 74.7204 57.6857 76.2316C57.9016 84.6927 60.699 91.6012 61.5855 97.072C61.7325 97.9493 61.7187 98.5694 61.6774 99.0563Z" fill="#FDCE8C"/>
<path d="M23.7771 8.10668C23.9011 7.36714 23.7036 6.71487 23.9378 5.9937C24.117 5.45168 24.6544 5.0199 24.9346 4.55596C25.2837 3.9726 25.3986 3.49948 25.789 2.93908C26.2254 2.32356 26.7858 2.21791 27.3737 1.85963C28.1959 1.35894 28.5313 0.839889 29.4453 0.623998C31.0117 0.256524 32.4449 -0.0374545 34.0985 0.00388626C35.7475 -0.0374545 37.1807 0.256524 38.7516 0.623998C39.6657 0.835295 40.0056 1.35435 40.8232 1.85963C41.4112 2.21791 41.9762 2.32356 42.408 2.93908C42.803 3.49948 42.9133 3.9726 43.267 4.55596C43.5471 5.0199 44.0892 5.44709 44.2637 5.9937C44.498 6.71028 44.3005 7.36714 44.4245 8.10668C44.5439 8.80028 44.8609 9.4893 44.792 10.2105C44.7277 10.9224 44.3464 11.5334 44.4612 12.3097C44.5715 13.0768 44.3832 13.8852 44.0341 14.611C43.5609 15.5848 43.9468 16.0303 43.6206 17.0592C43.2394 18.2673 42.7066 19.4478 41.9303 20.463C41.0621 21.6021 39.8678 22.5392 38.453 22.9021L34.0985 23.118L29.7439 22.9021C28.3292 22.5392 27.1349 21.6021 26.2667 20.463C25.4904 19.4478 24.9576 18.2673 24.5763 17.0592C24.2502 16.0303 24.636 15.5894 24.1629 14.611C23.8092 13.8852 23.6255 13.0768 23.7357 12.3097C23.846 11.5334 23.4693 10.9224 23.405 10.2105C23.3407 9.4893 23.6576 8.80028 23.7771 8.10668Z" fill="#1B1616"/>
<path d="M26.1566 14.6479C26.1566 14.6479 25.4584 13.4398 25.2103 14.432C24.751 16.2647 26.3817 18.295 26.4552 18.6579C26.5195 19.0254 26.1566 14.6479 26.1566 14.6479Z" fill="#FDCE8C"/>
<path d="M42.0497 14.6479C42.0497 14.6479 42.7479 13.4398 42.996 14.432C43.4553 16.2647 41.8247 18.295 41.7512 18.6579C41.6823 19.0254 42.0497 14.6479 42.0497 14.6479Z" fill="#FDCE8C"/>
<path d="M26.5975 9.25981C26.9007 8.11605 27.1212 7.65671 27.6264 7.39029C28.5956 6.87583 30.433 7.61996 34.1031 7.53269C37.7733 7.61996 39.6107 6.87583 40.5799 7.39029C41.0851 7.65671 41.3056 8.12065 41.6088 9.25981C41.9028 10.3576 42.4126 11.6805 42.4126 13.4031C42.4126 16.5634 41.9625 19.5077 41.2321 22.2087C40.6901 24.2068 39.6842 24.7442 37.0935 26.5219C36.3218 27.0501 34.7738 27.5278 34.1537 27.5554C34.1353 27.5554 34.1169 27.56 34.1031 27.56C34.0894 27.56 34.071 27.56 34.0526 27.5554C33.4325 27.5324 31.8845 27.0547 31.1128 26.5219C28.5221 24.7442 27.5208 24.2068 26.9742 22.2087C26.2392 19.5077 25.7891 16.5679 25.7891 13.4031C25.7937 11.6805 26.3035 10.3622 26.5975 9.25981Z" fill="#FDCE8C"/>
<path d="M42.1509 14.556C42.1509 14.556 43.0834 13.5271 43.4141 14.3723C44.025 15.934 41.8523 17.6658 41.7605 17.9781C41.664 18.2905 42.1509 14.556 42.1509 14.556Z" fill="#FDCE8C"/>
<path d="M17.7138 46.0115C17.8699 41.3722 16.965 34.9827 16.7997 32.3048C16.8088 32.3002 16.818 32.3002 16.8272 32.2956C17.0018 32.2359 17.1809 32.1762 17.3647 32.1164C17.5714 32.0475 17.7827 31.9786 18.0077 31.9051C18.5038 31.7444 19.0137 31.602 19.5282 31.4642C19.5925 31.4458 19.6522 31.432 19.7165 31.4136C20.0518 31.3264 20.3825 31.2391 20.7178 31.1518C20.8694 31.1151 21.0164 31.0737 21.168 31.037H21.1726C22.5782 35.8095 26.2116 44.6473 33.8642 44.831C33.8964 44.831 33.9239 44.8356 33.9561 44.8356C33.979 44.8356 33.9974 44.8356 34.0204 44.8402C34.048 44.8402 34.0755 44.8448 34.1031 44.8448C34.1306 44.8448 34.1582 44.8402 34.1858 44.8402C34.2087 44.8402 34.2271 44.8402 34.2501 44.8356C34.2822 44.8356 34.3098 44.831 34.3419 44.831C41.9946 44.6427 45.628 35.8095 47.0335 31.037H47.0381C47.1851 31.0737 47.3367 31.1151 47.4883 31.1518C47.819 31.2391 48.1543 31.3264 48.4897 31.4136C48.554 31.432 48.6137 31.4458 48.678 31.4642C49.1924 31.602 49.7023 31.7444 50.1984 31.9051C50.4235 31.9786 50.6348 32.0475 50.8415 32.1164C51.0252 32.1762 51.2044 32.2405 51.3789 32.2956C51.3881 32.3002 51.3973 32.3002 51.4065 32.3048C51.2411 34.9827 50.3362 41.3722 50.4924 46.0115C50.6807 51.519 51.8888 54.9044 53.3173 55.6853C53.2438 55.993 53.1703 56.3054 53.0877 56.6131C53.0831 56.6223 53.0831 56.6361 53.0785 56.6453C53.0004 56.9485 52.9131 57.2516 52.8258 57.5502C52.8212 57.5686 52.8121 57.5915 52.8075 57.6099C52.7156 57.9085 52.6237 58.1979 52.5227 58.4873C52.5181 58.501 52.5135 58.5148 52.5089 58.5332C52.4078 58.8272 52.2976 59.112 52.1828 59.383C49.514 65.7586 50.5291 73.8293 50.4373 77.7566C50.3592 81.142 50.9058 81.1879 51.48 83.0345C51.5581 83.2871 51.6315 83.5306 51.705 83.7694V83.774C51.7739 84.0083 51.8429 84.238 51.9118 84.463C51.9163 84.4722 51.9163 84.4814 51.9209 84.4906C51.9852 84.7111 52.045 84.9224 52.1047 85.1337C52.1093 85.1475 52.1093 85.1567 52.1139 85.1704C52.1736 85.3817 52.2287 85.5884 52.2792 85.7951L52.2884 85.8365C52.3389 86.0432 52.3895 86.2499 52.44 86.452C52.4446 86.4658 52.4492 86.4841 52.4492 86.4979C52.4951 86.7046 52.5456 86.9113 52.587 87.118C52.5916 87.1318 52.5916 87.1502 52.5962 87.164C52.6421 87.3753 52.6834 87.5912 52.7248 87.8071C52.7248 87.8208 52.7294 87.8346 52.734 87.8438C52.7753 88.0643 52.8167 88.2894 52.8534 88.5236C52.8534 88.5328 52.858 88.542 52.858 88.5466H34.2501H33.9561H15.3481C15.3481 88.5374 15.3527 88.5282 15.3527 88.5236C15.3895 88.294 15.4308 88.0643 15.4722 87.8438C15.4768 87.83 15.4768 87.8162 15.4813 87.8071C15.5227 87.5866 15.564 87.3753 15.61 87.164C15.6146 87.1502 15.6192 87.1318 15.6192 87.118C15.6651 86.9067 15.711 86.7 15.757 86.4979C15.7616 86.4841 15.7661 86.4658 15.7661 86.452C15.8167 86.2453 15.8672 86.0386 15.9177 85.8365L15.9269 85.7951C15.982 85.5884 16.0372 85.3817 16.0923 85.1704C16.0969 85.1567 16.1015 85.1475 16.1015 85.1337C16.1612 84.9224 16.2209 84.7065 16.2852 84.4906C16.2898 84.4814 16.2898 84.4722 16.2944 84.463C16.3587 84.238 16.4276 84.0083 16.5011 83.774V83.7694C16.5746 83.5306 16.6481 83.2871 16.7262 83.0345C17.3003 81.1833 17.8516 81.142 17.7689 77.7566C17.677 73.8293 18.6876 65.7586 16.0234 59.383C15.9085 59.1074 15.8029 58.8226 15.6972 58.5332C15.6926 58.5194 15.6881 58.5056 15.6835 58.4873C15.5824 58.2025 15.4905 57.9085 15.3987 57.6099C15.3941 57.5915 15.3849 57.5686 15.3803 57.5502C15.293 57.2516 15.2057 56.9485 15.1277 56.6453C15.1231 56.6361 15.1231 56.6223 15.1185 56.6131C15.0358 56.3008 14.9623 55.993 14.8888 55.6853C16.3219 54.9044 17.53 51.5236 17.7138 46.0115Z" fill="#4594F3"/>
<path d="M32.6056 106.828C32.6056 106.838 32.6056 106.847 32.6056 106.856C32.6056 106.856 29.528 108.565 22.0362 108.124C16.8089 107.816 13.9242 106.268 13.9242 106.268C13.9288 106.185 13.9288 106.107 13.9334 106.025C14.062 102.896 14.3238 99.5708 14.6729 95.6205C14.6683 95.5884 14.6637 95.5516 14.6683 95.5103C14.6867 95.1795 14.7097 94.8672 14.728 94.5594C14.728 94.5319 14.7326 94.4997 14.7326 94.4722C14.7556 94.1552 14.774 93.8474 14.7969 93.5535C14.7969 93.5443 14.7969 93.5351 14.7969 93.5259C14.8199 93.2273 14.8429 92.9334 14.8658 92.6532C14.8796 92.4924 14.8934 92.3454 14.9072 92.1892C14.9164 92.0698 14.9256 91.9458 14.9393 91.8309C14.9623 91.5691 14.9899 91.3165 15.0128 91.073V91.0684C15.0404 90.8158 15.068 90.5723 15.0955 90.3381C15.1001 90.3151 15.1001 90.2921 15.1047 90.2692C15.1277 90.0808 15.1506 89.8971 15.1736 89.718C15.1828 89.6399 15.1966 89.5618 15.2058 89.4837C15.2241 89.3597 15.2425 89.2357 15.2609 89.1116C15.3114 88.7809 15.3619 88.464 15.4171 88.1562C15.4171 88.1516 15.4171 88.1516 15.4171 88.1516C15.4676 87.8714 15.5181 87.6004 15.5732 87.3294C15.6284 87.063 15.6881 86.8011 15.7478 86.5393C15.7478 86.5347 15.7478 86.5301 15.7524 86.5301C15.8121 86.2729 15.8764 86.0157 15.9453 85.7584C15.9453 85.7584 15.9453 85.7584 15.9453 85.7538C16.4552 86.0019 21.8984 87.4213 33.9974 87.4258C34.0342 87.4258 34.0709 87.4258 34.1077 87.4258C34.1444 87.4258 34.1812 87.4258 34.2179 87.4258C46.317 87.4213 51.7556 86.0019 52.2701 85.7538V85.7584C52.339 86.0157 52.3987 86.2729 52.4584 86.5301C52.4584 86.5347 52.4584 86.5393 52.463 86.5393C52.5227 86.8011 52.5824 87.063 52.6375 87.3294C52.6926 87.5958 52.7432 87.8714 52.7937 88.1516V88.1562C52.8488 88.4548 52.8994 88.7671 52.9453 89.0841C52.9728 89.2678 53.0004 89.4515 53.0234 89.6445C53.028 89.6674 53.028 89.6858 53.0326 89.7088C53.0601 89.9017 53.0831 90.0992 53.1061 90.3013C53.1061 90.3197 53.1107 90.3381 53.1107 90.3565C53.1336 90.5678 53.1612 90.7836 53.1841 91.0087C53.1887 91.0409 53.1933 91.0776 53.1933 91.1098C53.2163 91.3349 53.2393 91.5691 53.2622 91.808C53.2622 91.8309 53.2668 91.8493 53.2668 91.8723C53.2898 92.1249 53.3128 92.3821 53.3357 92.6486V92.6532C53.3587 92.915 53.3771 93.1906 53.4 93.4708C53.4046 93.5121 53.4046 93.5489 53.4092 93.5902C53.4276 93.8658 53.4506 94.1506 53.4689 94.4446C53.4735 94.4859 53.4735 94.5227 53.4781 94.564C53.4965 94.8718 53.5195 95.1841 53.5378 95.5103C53.5424 95.5516 53.5378 95.5884 53.5332 95.6205C53.8869 99.5708 54.1442 102.901 54.2774 106.029C54.282 106.107 54.282 106.185 54.2866 106.268C54.2866 106.268 51.4019 107.821 46.1746 108.124C38.6781 108.565 35.6051 106.856 35.6051 106.856C35.5959 105.914 35.5959 104.996 35.6005 104.118C35.4627 104.173 35.3249 104.219 35.1871 104.261C34.9758 104.325 34.7691 104.376 34.5486 104.403C34.544 104.403 34.5395 104.403 34.5349 104.403C34.3925 104.422 34.2501 104.431 34.1077 104.431C33.9607 104.431 33.8183 104.422 33.6805 104.403C33.6759 104.403 33.6713 104.403 33.6667 104.403C33.3084 104.357 32.9593 104.261 32.6148 104.118C32.6148 104.986 32.6148 105.896 32.6056 106.828Z" fill="#666666"/>
</svg>
