<svg width="55" height="200" viewBox="0 0 55 200" fill="none" xmlns="http://www.w3.org/2000/svg">
<path d="M52.7371 71.3974C52.8744 72.8946 51.4368 74.1902 49.9031 74.5931C49.198 74.7763 46.2633 75.2433 45.8192 71.8186C45.0363 65.8118 42.6738 46.45 41.5933 44.1882C40.5266 41.9586 40.9112 40.1913 40.9432 39.1017C41.9871 33.2185 47.4994 32.7195 49.6879 38.8545C50.1732 40.2188 51.8397 44.7651 51.652 51.1794C51.446 58.1568 52.1419 64.9053 52.7371 71.3974Z" fill="#FDCE8C"/>
<path d="M54.3807 97.7367C54.454 96.0839 53.3323 95.2232 52.5448 95.0172C51.3865 94.715 50.9561 95.0584 50.1091 96.6242C49.5277 98.4006 48.1954 98.1488 47.1424 103.345C46.8585 104.742 46.5518 106.092 46.3732 107.319C46.3549 107.438 47.2614 107.772 47.7055 106.449C48.7814 103.258 49.1156 103.721 49.7337 102.613C49.5735 104.027 49.9306 105.378 48.4884 108.725C47.5773 110.84 46.4281 112.026 47.1378 112.887C47.8429 113.747 51.6429 110.597 53.5978 104.971C54.3441 102.837 53.9321 100.827 54.3807 97.7367Z" fill="#FDCE8C"/>
<path d="M49.8939 97.1737C50.2556 99.2294 51.304 99.2614 52.1602 99.2843C53.0209 99.3072 54.225 98.8951 54.399 97.3431C54.5089 96.3679 54.4402 95.2324 54.4677 94.0283C54.8385 78.8145 54.1335 74.8404 52.1739 69.1266C51.6886 67.7165 50.2419 65.8577 48.438 66.5765C45.7825 67.6387 45.9016 69.9508 45.9382 71.4799C46.1442 80.0277 48.525 84.629 49.8161 95.1683C49.9168 96.0611 49.9305 96.6838 49.8939 97.1737Z" fill="#FDCE8C"/>
<path d="M36.9051 196.941C37.3401 199.248 34.6114 199.669 33.0868 199.784C31.8323 199.875 28.4077 200.828 28.3299 197.843C28.3024 196.803 29.6301 194.244 29.8865 191.332C30.1475 188.333 30.587 185.44 30.6648 183.956C31.0082 177.625 28.6687 164.462 28.2933 155.012C28.0002 147.668 29.328 143.369 29.5706 139.491C29.7721 136.305 28.5771 134.025 28.7877 128.604C29.1723 118.884 28.2887 107.713 27.7576 99.7924C27.5012 95.9878 27.4691 86.3137 36.461 85.2882C45.5353 84.2489 45.1279 91.1988 45.1279 94.7837C45.1462 109.343 40.2199 122.707 39.6842 128.155C39.2447 132.665 38.7365 135.865 39.0936 139.363C39.4461 142.861 39.8399 146.853 39.762 152.352C39.6476 160.657 35.669 178.618 35.7697 185.87C35.7789 186.644 35.8475 189.702 36.0261 191.126C36.342 193.681 36.6213 195.43 36.9051 196.941Z" fill="#FDCE8C"/>
<path d="M17.6483 196.941C17.2134 199.248 19.9421 199.669 21.4667 199.784C22.7212 199.875 26.1458 200.828 26.2236 197.843C26.2511 196.803 24.9234 194.244 24.667 191.332C24.406 188.333 23.9665 185.44 23.8887 183.956C23.5407 177.625 25.8848 164.462 26.2602 155.012C26.5533 147.668 25.2255 143.369 24.9829 139.491C24.7814 136.305 25.9764 134.025 25.7658 128.604C25.3812 118.884 26.2648 107.713 26.7959 99.7925C27.0523 95.9879 27.0843 86.3138 18.0924 85.2882C9.01814 84.2489 9.42562 91.1989 9.42562 94.7838C9.40731 109.343 14.3336 122.707 14.8693 128.155C15.3088 132.665 15.817 135.865 15.4599 139.363C15.1074 142.861 14.7136 146.853 14.7914 152.352C14.9059 160.657 18.8845 178.618 18.7838 185.87C18.7746 186.644 18.7059 189.702 18.5274 191.126C18.2161 193.681 17.9322 195.43 17.6483 196.941Z" fill="#FDCE8C"/>
<path d="M1.821 71.3975C1.68365 72.8946 3.12125 74.1903 4.655 74.5932C5.36007 74.7763 8.2948 75.2433 8.7389 71.8187C9.5218 65.8119 11.8842 46.45 12.9647 44.1883C14.0315 41.9586 13.6469 40.1914 13.6148 39.1018C12.5756 33.2186 7.06322 32.7195 4.87018 38.8545C4.3803 40.2189 2.71836 44.7652 2.90607 51.1795C3.10752 58.1569 2.41619 64.9054 1.821 71.3975Z" fill="#FDCE8C"/>
<path d="M0.172725 97.7368C0.0994712 96.084 1.22117 95.2233 2.00864 95.0173C3.16697 94.7151 3.59733 95.0585 4.43975 96.6243C5.0212 98.4007 6.35351 98.1489 7.40653 103.345C7.69039 104.742 7.99714 106.092 8.17569 107.319C8.19401 107.438 7.28749 107.773 6.84339 106.449C5.76748 103.258 5.43326 103.721 4.81518 102.613C4.97542 104.027 4.61831 105.378 6.06049 108.725C6.97159 110.84 8.11618 112.026 7.41111 112.887C6.70604 113.747 2.906 110.597 0.951044 104.971C0.213929 102.837 0.621404 100.827 0.172725 97.7368Z" fill="#FDCE8C"/>
<path d="M4.66417 97.1737C4.30248 99.2294 3.25404 99.2614 2.39789 99.2843C1.53716 99.3072 0.333045 98.8951 0.163646 97.3431C0.0583435 96.3679 0.122443 95.2324 0.0949732 94.0283C-0.275874 78.8145 0.429191 74.8404 2.38873 69.1266C2.87403 67.7165 4.32537 65.8577 6.12925 66.5765C8.78469 67.6387 8.66566 69.9508 8.62903 71.4799C8.42301 80.0277 6.04226 84.629 4.75116 95.1683C4.6367 96.0611 4.62297 96.6838 4.66417 97.1737Z" fill="#FDCE8C"/>
<path d="M14.1689 56.5087C14.1689 56.5087 12.6397 54.2561 12.2643 53.2992C10.9686 49.9891 11.3532 46.3218 12.9602 43.4466L7.75464 34.9583C9.71418 33.7313 21.0273 33.9053 22.355 28.6677C22.8632 26.6715 23.2386 19.3095 23.2386 19.3095L27.2539 19.2958H27.2722H27.2905L31.3057 19.3095C31.3057 19.3095 31.6811 26.6715 32.1893 28.6677C33.5171 33.9053 44.8348 33.7313 46.7897 34.9583L41.5933 43.4466C43.2049 46.3218 43.5849 49.9891 42.2892 53.2992C41.9138 54.2561 40.3846 56.5087 40.3846 56.5087C39.7711 61.8013 39.3682 68.3163 39.7711 72.0385C40.3205 77.093 45.1461 81.5615 45.1324 94.7792C45.1324 97.192 32.6884 99.3713 27.2997 99.8199V99.8245C27.2951 99.8245 27.2859 99.8245 27.2813 99.8245C27.2768 99.8245 27.2676 99.8245 27.263 99.8245V99.8199C21.8743 99.3758 9.43032 97.1965 9.43032 94.7792C9.41658 81.566 14.2422 77.0976 14.7916 72.0385C15.1853 68.3163 14.7824 61.8013 14.1689 56.5087Z" fill="#FDCE8C"/>
<path opacity="0.1" d="M22.6067 27.2576C22.6799 26.6991 22.7486 26.0581 22.8127 25.3896C24.438 26.7998 26.4846 27.688 27.2812 27.7017C28.0778 27.688 30.1198 26.8044 31.7497 25.3896C31.8138 26.0627 31.8824 26.7036 31.9557 27.2576C31.2689 28.5396 29.5337 30.8287 27.2812 31.2133C25.0286 30.8287 23.2934 28.535 22.6067 27.2576Z" fill="#231300"/>
<path d="M27.2536 5.33641C27.2536 5.33641 27.1438 3.88049 27.2536 5.33641C33.4573 5.41424 35.7419 10.6565 35.7419 15.1936C35.7419 18.5862 34.8537 19.7674 33.7366 22.7342C32.6607 25.6048 28.5402 27.6513 27.2949 27.6925C26.0129 27.6559 21.897 25.6048 20.8165 22.7342C19.7039 19.7674 18.8112 18.5862 18.8112 15.1936C18.8157 10.6565 21.05 5.40966 27.2536 5.33641Z" fill="#FDCE8C"/>
<path d="M32.2258 28.6678C32.0564 28.0085 31.9053 26.7632 31.7771 25.3897C32.6425 24.6388 33.3933 23.7415 33.7687 22.7388C34.8813 19.772 35.774 18.5908 35.774 15.1983C35.774 15.0792 35.7741 14.9602 35.7695 14.8411C35.655 10.4642 23.0325 6.29793 22.0436 7.24107C20.1527 9.0541 18.8433 12.0758 18.8433 15.1983C18.8433 18.5908 19.7315 19.772 20.8486 22.7388C21.224 23.7415 21.9749 24.6388 22.8402 25.3897C22.712 26.7632 22.5609 28.0085 22.3915 28.6678C21.7185 31.3278 18.4724 32.5914 15.1852 33.3514C14.7365 30.5312 14.6907 25.5728 14.8097 21.4111C14.9242 17.373 15.0982 13.5043 15.6934 10.185C16.2153 7.28227 17.3553 3.83477 19.7406 2.12246C21.5033 0.694015 23.9161 -0.0843058 27.2537 0.00726135C30.5913 -0.0843058 33.0087 0.694015 34.7668 2.12246C37.1521 3.83935 38.3608 6.58636 38.8141 10.185C39.2353 13.5272 39.5832 17.3684 39.6977 21.4111C39.8167 25.5591 39.771 30.5037 39.3269 33.3286C36.0762 32.564 32.8897 31.2958 32.2258 28.6678Z" fill="#1B1616"/>
<path d="M35.5267 15.5874C35.5267 15.5874 36.4744 14.484 36.8132 15.3905C37.4359 17.0662 35.2245 18.9296 35.1284 19.2592C35.0322 19.5935 35.5267 15.5874 35.5267 15.5874Z" fill="#FDCE8C"/>
<path d="M19.0813 15.5874C19.0813 15.5874 18.1336 14.484 17.7948 15.3905C17.1721 17.0662 19.3835 18.9296 19.4796 19.2592C19.5758 19.5935 19.0813 15.5874 19.0813 15.5874Z" fill="#FDCE8C"/>
<path d="M44.8301 89.3127C43.7724 80.188 40.2334 76.3239 39.771 72.0385C39.391 68.5498 39.7252 62.6071 40.2746 57.516C40.3112 57.1772 40.3478 56.843 40.389 56.5087C40.389 56.5087 41.9182 54.2562 42.2936 53.2993C42.3806 53.0796 42.4585 52.8552 42.5271 52.6309C42.5409 52.5851 42.5546 52.5393 42.5683 52.4935C42.6233 52.3058 42.6782 52.1227 42.724 51.935C42.7332 51.9029 42.7377 51.8663 42.7469 51.8342C42.7973 51.6282 42.8385 51.4268 42.8797 51.2207C42.8797 51.2024 42.8843 51.1841 42.8888 51.1658C42.9255 50.946 42.9621 50.7263 42.985 50.5019C43.072 49.7511 43.0903 48.9957 43.0353 48.2494C43.0353 48.2402 42.985 48.0937 42.9026 47.8419C42.5455 46.7614 41.5748 43.7351 41.3917 41.391C41.3139 40.4296 41.2131 39.3948 41.1399 38.3693C41.03 36.831 40.9934 35.3201 41.2223 34.1297C41.2452 33.997 41.2773 33.8688 41.3093 33.7452C41.1399 33.7223 40.2196 33.5071 39.3635 33.3148C39.0796 33.2507 38.8004 33.1912 38.5623 33.1408C36.9599 47.0728 28.7921 48.112 27.4186 48.0983C27.3728 48.0983 27.3361 48.0983 27.3087 48.0937C27.3041 48.0937 27.2949 48.0937 27.2904 48.0937C27.2858 48.0937 27.2766 48.0937 27.272 48.0937C27.2446 48.0937 27.2034 48.0983 27.1622 48.0983C25.7932 48.112 17.6209 47.0728 16.0184 33.1408C15.7804 33.1912 15.5011 33.2507 15.2172 33.3148C14.3611 33.5071 13.4408 33.7223 13.2714 33.7452C13.3035 33.8688 13.3309 33.997 13.3584 34.1297C13.5873 35.3201 13.5507 36.831 13.4408 38.3693C13.3676 39.3948 13.2668 40.4296 13.189 41.391C13.0196 43.5566 12.1818 46.299 11.7697 47.5626C11.7331 47.6679 11.7056 47.7641 11.6782 47.8465C11.6232 48.0113 11.582 48.1349 11.5591 48.199C11.55 48.2311 11.5408 48.2494 11.5408 48.254C11.4813 49.0002 11.4996 49.7557 11.5912 50.5065C11.6186 50.7263 11.6507 50.9506 11.6873 51.1704C11.6919 51.1887 11.6919 51.207 11.6965 51.2253C11.7331 51.4313 11.7789 51.6374 11.8292 51.8388C11.8384 51.8709 11.843 51.9075 11.8521 51.9395C11.8979 52.1273 11.9529 52.315 12.0078 52.4981C12.0215 52.5439 12.0353 52.5897 12.049 52.6355C12.1177 52.8598 12.2001 53.0841 12.2825 53.3039C12.6579 54.2608 14.1871 56.5133 14.1871 56.5133C14.2237 56.843 14.2649 57.1818 14.3016 57.5206C14.851 62.6117 15.1806 68.5544 14.8052 72.0431C14.3428 76.3285 10.8037 80.1926 9.74609 89.3173V89.3218C17.456 92.7007 26.8188 99.7925 26.8188 99.7925C26.8188 99.7925 26.8188 99.788 26.8188 99.7834C26.979 99.7971 27.1301 99.8063 27.2812 99.82V99.8246C27.2858 99.8246 27.2949 99.8246 27.2995 99.8246C27.3041 99.8246 27.3133 99.8246 27.3178 99.8246V99.82C27.4643 99.8109 27.62 99.7971 27.7802 99.7834C27.7802 99.7834 27.7802 99.788 27.7802 99.7925C27.7802 99.7925 37.143 92.7007 44.8529 89.3218C44.8346 89.3173 44.8301 89.3127 44.8301 89.3127Z" fill="#4594F3"/>
<path d="M11.5226 48.2448C11.5272 48.1899 11.5318 48.1349 11.5409 48.08C11.5501 47.9838 11.5592 47.8831 11.573 47.787C11.5821 47.732 11.605 47.6588 11.6325 47.5718C11.573 50.479 13.2304 53.7297 15.8263 54.1097C21.5492 54.9475 23.7377 52.7087 27.1898 52.6171V52.608C27.2172 52.608 27.2493 52.6125 27.2768 52.6125C27.3042 52.6125 27.3363 52.608 27.3637 52.608V52.6171C30.8158 52.7041 33.0043 54.9475 38.7272 54.1097C41.3277 53.7297 42.9805 50.479 42.921 47.5718C42.9531 47.6588 42.9759 47.732 42.9805 47.787C42.9943 47.8831 43.0034 47.9838 43.0126 48.08C43.0171 48.1349 43.0217 48.1899 43.0309 48.2448C43.1545 49.8381 42.9485 51.4725 42.3808 53.0383C42.2892 53.2764 42.193 53.5053 42.0923 53.7205C41.5475 54.7918 40.3846 56.5087 40.3846 56.5087C40.2656 57.5389 40.1557 58.6102 40.055 59.6998C39.6749 62.1767 39.6658 64.7864 39.62 67.158C39.3133 63.2435 38.2465 59.9288 37.7337 59.4755C35.4125 57.4381 27.7941 57.3969 27.2859 57.3969C27.2813 57.3969 27.2813 57.3969 27.2768 57.3969C27.2722 57.3969 27.2722 57.3969 27.2676 57.3969C26.7594 57.3969 19.1456 57.4381 16.8198 59.4755C16.3024 59.9288 15.2357 63.2435 14.9335 67.158C14.8877 64.7864 14.874 62.1767 14.4986 59.6998C14.3978 58.6102 14.2879 57.5343 14.1689 56.5087C14.1689 56.5087 13.006 54.7964 12.4612 53.7205C12.365 53.5053 12.2643 53.2764 12.1728 53.0383C11.605 51.4725 11.4036 49.8381 11.5226 48.2448Z" fill="#2D87F3"/>
</svg>
