<svg width="53" height="200" viewBox="0 0 53 200" fill="none" xmlns="http://www.w3.org/2000/svg">
<path d="M38.9429 21.434C38.833 17.396 38.6682 13.5274 38.0776 10.2082C37.5603 7.30563 36.4249 3.85824 34.0442 2.13683C32.2862 0.708432 29.8689 -0.0790195 26.536 0.00796642C26.5268 0.00796642 26.5222 0.00796642 26.5131 0.00796642C26.5039 0.00796642 26.4994 0.00796642 26.4902 0.00796642C23.1527 -0.088176 20.7354 0.690119 18.9682 2.11394C16.583 3.82619 15.4338 7.269 14.9073 10.1716C14.303 13.4908 14.129 17.3548 14.0054 21.3928C13.8772 25.5544 14.2206 32.4492 14.6647 35.2693C17.9564 34.5139 34.9553 34.5414 38.2425 35.3105C38.6957 32.4904 39.0574 25.5956 38.9429 21.434Z" fill="#1B1616"/>
<path d="M35.8115 196.953C36.2418 199.261 33.5132 199.677 31.9887 199.787C30.7343 199.879 27.3098 200.822 27.2365 197.837C27.209 196.798 28.5413 194.238 28.8022 191.327C29.0678 188.328 29.5119 185.439 29.5943 183.956C29.9514 177.624 28.3307 164.462 27.9736 155.012C27.6943 147.664 28.3261 143.37 28.5779 139.492C28.7839 136.306 27.3647 134.007 27.8134 128.605C29.3059 110.723 27.3464 107.715 26.829 99.79C26.5818 95.9855 26.5727 86.3804 35.5551 85.2999C41.9371 84.5308 43.1778 91.3661 43.1824 94.9508C43.1961 107.999 37.6428 122.438 37.8625 127.905C38.0823 133.399 36.9606 135.949 37.043 139.465C37.1483 144.116 38.1281 150.681 37.1895 156.885C35.9488 165.094 33.7879 178.338 33.8749 185.586C33.8841 186.359 33.9482 189.418 34.1221 190.841C34.4289 193.405 35.5276 195.447 35.8115 196.953Z" fill="#FDCE8C"/>
<path d="M50.1733 69.1709C50.3015 70.6085 48.9189 71.8583 47.4447 72.2383C46.7671 72.4123 44.8214 72.838 44.4643 69.5372C43.3839 59.5933 40.5408 45.1673 39.5015 42.9927C38.4806 40.8501 38.8514 39.1516 38.8881 38.1032C39.8998 32.4491 45.2014 31.9775 47.2936 37.8788C47.7606 39.1928 49.3493 43.565 49.1615 49.7364C48.9555 56.4435 49.6102 62.9308 50.1733 69.1709Z" fill="#FDCE8C"/>
<path d="M52.5358 97.3223C52.6136 95.6696 51.492 94.8089 50.7045 94.6028C49.5462 94.3007 49.3631 94.6532 48.5162 96.2144C47.9301 97.9861 46.3552 97.7298 45.2931 102.921C45.0092 104.318 44.6979 105.668 44.5148 106.895C44.4965 107.014 45.403 107.353 45.8516 106.03C46.9367 102.839 47.2663 103.301 47.8889 102.194C47.7287 103.608 48.0812 104.959 46.6345 108.301C45.7189 110.416 44.5697 111.597 45.2748 112.458C45.9798 113.319 49.7797 110.178 51.7484 104.556C52.49 102.427 52.0826 100.413 52.5358 97.3223Z" fill="#FDCE8C"/>
<path d="M48.5162 96.219C48.5162 96.219 48.6215 98.6821 50.3108 98.8698C51.1624 98.9659 52.3756 98.4852 52.5496 96.9332C52.6595 95.9626 52.5954 94.8227 52.6228 93.6186C53.0166 78.4052 52.3207 74.4313 50.3704 68.7131C49.8896 67.3031 48.4063 65.3573 46.6345 66.1585C44.5972 67.0787 44.5377 68.736 44.5743 70.2652C44.7666 78.8172 47.1565 83.6747 48.4292 94.2138C48.5436 95.1065 48.5574 95.7291 48.5162 96.219Z" fill="#FDCE8C"/>
<path d="M16.5555 196.921C16.116 199.229 18.8446 199.654 20.3691 199.769C21.6236 199.865 25.0435 200.822 25.1259 197.837C25.1534 196.798 23.8348 194.234 23.583 191.322C23.3267 188.323 22.8917 185.43 22.8139 183.947C22.4797 177.615 24.1416 164.457 24.5307 155.008C24.8329 147.664 24.2148 143.365 23.9768 139.483C23.7799 136.297 25.2083 134.003 24.778 128.596C23.345 110.709 25.3136 107.71 25.8584 99.7853C26.1194 95.9808 26.1606 86.3803 17.1781 85.2678C10.7961 84.4804 9.5371 91.3065 9.51879 94.8912C9.45927 107.939 14.9669 122.397 14.7288 127.863C14.4907 133.357 15.6032 135.907 15.5117 139.423C15.3926 144.075 14.3854 150.64 15.3056 156.839C16.5189 165.052 18.6386 178.302 18.5241 185.553C18.5104 186.327 18.4371 189.385 18.2632 190.809C17.9518 193.378 16.8439 195.415 16.5555 196.921Z" fill="#FDCE8C"/>
<path d="M2.61483 69.093C2.48206 70.5306 3.8601 71.7804 5.33429 72.1696C6.01186 72.3481 7.95302 72.7785 8.32386 69.4821C9.43636 59.5383 12.3298 45.1261 13.3736 42.956C14.4037 40.8134 14.0329 39.1149 14.0054 38.0665C13.0119 32.4078 7.71495 31.9179 5.59982 37.8147C5.12827 39.1286 3.52132 43.4917 3.69071 49.6631C3.87842 56.3702 3.20084 62.8529 2.61483 69.093Z" fill="#FDCE8C"/>
<path d="M0.160968 97.2352C0.0922949 95.5825 1.21396 94.7264 2.00141 94.5204C3.15969 94.2182 3.34282 94.5753 4.18521 96.141C4.76665 97.9174 6.34155 97.661 7.38538 102.857C7.66465 104.254 7.97139 105.604 8.14994 106.831C8.16825 106.95 7.26177 107.284 6.81768 105.961C5.74638 102.766 5.41217 103.228 4.79412 102.12C4.94977 103.535 4.59267 104.885 6.03023 108.232C6.94129 110.347 8.08127 111.538 7.37622 112.394C6.6666 113.25 2.87585 110.095 0.930107 104.469C0.193015 102.34 0.605054 100.326 0.160968 97.2352Z" fill="#FDCE8C"/>
<path d="M4.18518 96.1411C4.18518 96.1411 4.0753 98.5996 2.38136 98.7873C1.52982 98.8788 0.316592 98.3936 0.147198 96.8461C0.0418992 95.871 0.110572 94.7356 0.0831031 93.5315C-0.260263 78.3181 0.44936 74.3442 2.41799 68.6352C2.90328 67.2251 4.39578 65.284 6.15839 66.0943C8.19111 67.0237 8.24605 68.6764 8.20484 70.2055C7.98509 78.753 5.57695 83.6059 4.26759 94.1404C4.16229 95.0331 4.14855 95.6558 4.18518 96.1411Z" fill="#FDCE8C"/>
<path d="M39.6846 54.4428C40.0691 52.4055 42.2713 50.739 40.7513 43.4734L45.4348 34.5871C42.3033 33.3785 41.5799 34.1613 38.5446 33.3739C35.6237 32.6139 32.071 31.4465 31.3751 28.6766C30.8715 26.6805 30.5098 19.3142 30.5098 19.3142L26.4947 19.2913H26.4764H26.4581L22.443 19.3005C22.443 19.3005 22.0539 26.6622 21.5457 28.6583C20.8407 31.4236 17.2834 32.5819 14.3625 33.3281C11.3271 34.1064 10.6038 33.3235 7.47229 34.5184L12.1283 43.4185C10.5855 50.6795 12.783 52.3506 13.1584 54.3879C14.0649 59.2957 15.4292 59.4102 15.4109 69.3678C15.3926 79.9892 9.55537 78.9454 9.61489 96.9972C9.61489 96.9972 20.9414 99.3504 26.3299 99.8037V99.8083C26.3345 99.8083 26.3437 99.8083 26.3482 99.8083C26.3528 99.8083 26.362 99.8083 26.3666 99.8083V99.8037C31.7597 99.3688 43.0908 97.0522 43.0908 97.0522C43.2052 78.9957 37.368 80.0212 37.3863 69.3998C37.4 59.4559 38.7598 59.3461 39.6846 54.4428Z" fill="#FDCE8C"/>
<path opacity="0.1" d="M30.9357 25.3987C29.3058 26.8088 27.2639 27.6878 26.4673 27.7016C25.6707 27.6878 23.6288 26.7997 22.0036 25.385C21.9395 26.058 21.8708 26.699 21.793 27.2529C22.4797 28.5348 24.2103 30.8285 26.4582 31.2131C28.7106 30.8331 30.4458 28.544 31.1371 27.2667C31.0638 26.7081 30.9997 26.0717 30.9357 25.3987Z" fill="#231300"/>
<path d="M26.5269 5.34161C26.5177 5.34161 26.5132 5.34161 26.504 5.34161C26.4948 5.34161 26.4903 5.34161 26.4811 5.34161C20.2776 5.40113 18.0343 10.6478 18.0252 15.1848C18.0206 18.5772 19.1422 19.2502 20.0167 22.7296C20.7584 25.6872 25.4373 27.6924 26.4674 27.697C27.4975 27.7016 32.181 25.7101 32.9364 22.7525C33.82 19.2777 34.9462 18.6093 34.9508 15.2168C34.9554 10.6752 32.7304 5.42402 26.5269 5.34161Z" fill="#FDCE8C"/>
<path d="M35.4681 14.727C36.6219 14.3882 37.4597 14.1226 38.6042 13.7472C38.4898 12.5523 38.3616 11.394 38.2242 10.2953C37.7756 6.69678 36.5715 3.94528 34.1908 2.22387C32.4328 0.79547 30.0155 0.00801785 26.678 0.0950038C23.3405 -0.00571678 20.9232 0.772579 19.1606 2.1964C16.7753 3.90865 15.6262 7.35146 15.0997 10.254C14.7014 12.4379 14.4908 14.8597 14.358 17.4098C15.6903 17.3594 15.8322 17.3228 17.1599 17.2267C17.0912 16.6864 17.7734 15.9768 17.7734 15.2855C17.778 12.1677 19.5635 9.12781 21.4543 7.31942C22.4386 6.38546 35.1385 10.396 35.4681 14.727Z" fill="#1B1616"/>
<path d="M18.7439 15.5785C18.7439 15.5785 17.7962 14.4706 17.4574 15.3817C16.8302 17.0573 19.0415 18.9206 19.1376 19.2548C19.2338 19.5845 18.7439 15.5785 18.7439 15.5785Z" fill="#FDCE8C"/>
<path d="M34.2228 15.6013C34.2228 15.6013 35.175 14.4979 35.5092 15.4044C36.1273 17.0801 33.9114 18.9388 33.8153 19.273C33.7237 19.6118 34.2228 15.6013 34.2228 15.6013Z" fill="#FDCE8C"/>
<path d="M38.1876 74.9853C35.9397 68.6628 38.5264 60.5914 39.6847 54.4383C39.6892 52.4468 42.0699 50.8627 40.9116 44.2975C40.8613 44.0228 40.8109 43.7527 40.7514 43.4689C40.7514 43.4689 39.909 39.6552 40.9803 33.7631C40.0418 33.7127 40.0463 33.7585 38.5493 33.3694C38.2837 33.3007 38.0136 33.2274 37.7435 33.1496C37.7389 33.1496 37.7344 33.1588 37.7252 33.1588V33.6166C36.9652 45.7168 28.8709 47.7632 26.559 48.0975C26.5132 48.102 26.4765 48.0975 26.4491 48.0929C26.4445 48.0929 26.4353 48.0929 26.4308 48.0929C26.4262 48.0929 26.417 48.0929 26.4124 48.0929C26.385 48.0929 26.3438 48.102 26.3026 48.0975C23.9906 47.7587 15.9055 45.6847 15.1867 33.58V33.1221C15.1821 33.1221 15.1775 33.1176 15.1684 33.113C14.8983 33.1862 14.6281 33.2595 14.3626 33.3282C12.8655 33.7127 12.8701 33.6669 11.9316 33.7173C12.9846 39.614 12.1284 43.4231 12.1284 43.4231C12.0689 43.7069 12.0186 43.9771 11.9682 44.2518C10.787 50.8078 13.1631 52.4055 13.1585 54.3971C13.8224 57.9818 17.0592 68.0676 14.5869 74.9486C13.3142 78.4968 10.9244 82.6034 9.995 89.837C17.2606 93.3027 25.4556 99.4787 25.8448 99.7717C26.0096 99.79 26.1698 99.8037 26.3255 99.8175V99.822C26.33 99.822 26.3392 99.822 26.3438 99.822C26.3484 99.822 26.3575 99.822 26.3621 99.822V99.8175C26.5177 99.8037 26.678 99.79 26.8428 99.7763C27.2319 99.4833 35.4498 93.3347 42.7246 89.8919C41.8227 82.6583 39.442 78.5196 38.1876 74.9853Z" fill="#4594F3"/>
<path d="M40.9115 44.3022C40.9619 47.2094 40.0783 52.8818 35.9121 54.1133C32.1763 55.2166 28.9624 53.715 26.4215 53.6234C23.8806 53.7058 20.6621 55.1983 16.9309 54.0812C12.7647 52.836 11.904 47.1636 11.9635 44.2564C10.7823 50.8124 13.1584 52.4102 13.1538 54.4017C13.5933 56.7915 14.1427 58.6961 14.5868 61.1729C14.5777 59.4561 14.747 58.5084 15.4658 57.7667C17.4116 55.766 24.9519 55.9583 26.4169 55.9949C27.8774 55.9629 35.4177 55.7981 37.3588 57.8033C38.0776 58.545 38.2424 59.4973 38.2287 61.2141C38.6819 58.7419 39.2359 56.8327 39.6845 54.4475C39.6891 52.4514 42.0698 50.8628 40.9115 44.3022Z" fill="#2D87F3"/>
</svg>
